#N canvas 1 -1058 1678 743 10;
#X obj 510 -153 OSC/unpackOSC;
#X text 342 -176 OSC Data Receiving;
#X obj 397 -32 spigot;
#X obj 500 -32 spigot;
#X obj 622 -31 spigot;
#X obj 669 -32 r lar_on;
#X obj 738 -31 spigot;
#X obj 788 -29 r hec_on;
#X obj 508 -69 bng 15 250 50 0 empty empty empty 17 7 0 10 -262144
-1 -1;
#X obj 440 -32 r RPC_on;
#X obj 546 -32 r Track_on;
#X obj 627 -68 bng 15 250 50 0 empty empty empty 17 7 0 10 -262144
-1 -1;
#X obj 678 -69 bng 15 250 50 0 empty empty empty 17 7 0 10 -262144
-1 -1;
#X obj 769 -56 bng 15 250 50 0 empty empty empty 17 7 0 10 -262144
-1 -1;
#X obj 509 -91 OSC/routeOSC /RPC /Tracks /LArHits /HECHits /EventInfo
;
#X obj 253 11 OSC/routeOSC /eta /phi /theta;
#X obj 755 8 OSC/routeOSC /eta /phi /e /theta;
#X obj 1232 -11 OSC/routeOSC /eta /phi /e /theta;
#X obj 457 2 OSC/routeOSC /eta /phi /e /theta /pt;
#X floatatom 919 -36 5 0 0 0 - - etmiss;
#X floatatom 960 -40 5 0 0 0 - - effectivesum;
#X obj 880 -84 OSC/routeOSC /etmiss /effectivesum;
#X obj 571 -68 bng 15 250 50 0 empty empty empty 17 7 0 10 -262144
-1 -1;
#X obj 511 -127 OSC/routeOSC /0 /1 /2;
#X obj 418 -118 bng 15 250 50 0 empty empty empty 17 7 0 10 -262144
-1 -1;
#X obj 323 -85 OSC/routeOSC /test;
#X floatatom 312 -44 5 0 0 0 - - -;
#X obj 510 -179 iemnet/udpreceive 8000;
#X obj 1067 -42 s new_event;
#X floatatom 168 93 5 0 0 0 - - -;
#X floatatom 268 91 5 0 0 0 - - -;
#X floatatom 348 93 5 0 0 0 - - -;
#X obj 149 11 bng 15 250 50 0 empty next_RPC empty 17 7 0 10 -262144
-1 -1;
#X floatatom 228 92 5 0 0 0 - - -;
#X obj 182 49 store_all;
#X obj 265 50 store_all;
#X obj 351 50 store_all;
#X obj 455 53 store_all;
#X obj 517 52 store_all;
#X obj 647 57 store_all;
#X obj 715 55 store_all;
#X obj 814 54 store_all;
#X obj 896 54 store_all;
#X obj 980 53 store_all;
#X obj 1124 50 store_all;
#X obj 1191 49 store_all;
#X obj 1258 50 store_all;
#X obj 1344 49 store_all;
#X obj 1042 52 store_all;
#X obj 440 26 bng 15 250 50 0 empty next_track empty 17 7 0 10 -262144
-1 -1;
#X obj 734 16 bng 15 250 50 0 empty next_lar empty 17 7 0 10 -262144
-1 -1;
#X obj 1162 0 bng 15 250 50 0 empty next_hec empty 17 7 0 10 -262144
-1 -1;
#X obj 582 56 store_all;
#X floatatom 452 99 5 0 0 0 - - -;
#X floatatom 523 98 5 0 0 0 - - -;
#X floatatom 585 98 5 0 0 0 - - -;
#X floatatom 653 98 5 0 0 0 - - -;
#X floatatom 714 97 5 0 0 0 - - -;
#X floatatom 816 94 5 0 0 0 - - -;
#X floatatom 899 90 5 0 0 0 - - -;
#X floatatom 986 89 5 0 0 0 - - -;
#X floatatom 1049 87 5 0 0 0 - - -;
#X floatatom 1122 90 5 0 0 0 - - -;
#X floatatom 1192 86 5 0 0 0 - - -;
#X floatatom 1260 87 5 0 0 0 - - -;
#X floatatom 1342 86 5 0 0 0 - - -;
#X floatatom 862 93 5 0 0 0 - - -;
#X connect 0 0 23 0;
#X connect 0 0 25 0;
#X connect 2 0 15 0;
#X connect 3 0 18 0;
#X connect 4 0 16 0;
#X connect 5 0 4 1;
#X connect 6 0 17 0;
#X connect 7 0 6 1;
#X connect 9 0 2 1;
#X connect 10 0 3 1;
#X connect 14 0 2 0;
#X connect 14 0 8 0;
#X connect 14 1 3 0;
#X connect 14 1 22 0;
#X connect 14 2 4 0;
#X connect 14 2 11 0;
#X connect 14 3 6 0;
#X connect 14 3 12 0;
#X connect 14 4 13 0;
#X connect 14 4 21 0;
#X connect 15 0 34 1;
#X connect 15 1 35 1;
#X connect 15 2 36 1;
#X connect 16 0 41 1;
#X connect 16 1 42 1;
#X connect 16 2 43 1;
#X connect 16 3 48 1;
#X connect 17 0 44 1;
#X connect 17 1 45 1;
#X connect 17 2 46 1;
#X connect 17 3 47 1;
#X connect 18 0 37 1;
#X connect 18 1 38 1;
#X connect 18 2 52 1;
#X connect 18 3 39 1;
#X connect 18 4 40 1;
#X connect 21 0 19 0;
#X connect 21 1 20 0;
#X connect 21 1 28 0;
#X connect 23 0 14 0;
#X connect 23 1 14 0;
#X connect 23 2 14 0;
#X connect 25 0 26 0;
#X connect 27 0 0 0;
#X connect 27 0 24 0;
#X connect 32 0 34 0;
#X connect 32 0 35 0;
#X connect 32 0 36 0;
#X connect 34 0 29 0;
#X connect 34 1 33 0;
#X connect 35 0 30 0;
#X connect 36 0 31 0;
#X connect 37 0 53 0;
#X connect 38 0 54 0;
#X connect 39 0 56 0;
#X connect 40 0 57 0;
#X connect 41 0 58 0;
#X connect 41 1 66 0;
#X connect 42 0 59 0;
#X connect 43 0 60 0;
#X connect 44 0 62 0;
#X connect 45 0 63 0;
#X connect 46 0 64 0;
#X connect 47 0 65 0;
#X connect 48 0 61 0;
#X connect 49 0 37 0;
#X connect 49 0 38 0;
#X connect 49 0 39 0;
#X connect 49 0 40 0;
#X connect 49 0 52 0;
#X connect 50 0 41 0;
#X connect 50 0 42 0;
#X connect 50 0 43 0;
#X connect 50 0 48 0;
#X connect 51 0 44 0;
#X connect 51 0 45 0;
#X connect 51 0 46 0;
#X connect 51 0 47 0;
#X connect 52 0 55 0;
