#N canvas 27 -1058 1460 1035 10;
#X obj 500 -163 OSC/unpackOSC;
#X text 332 -186 OSC Data Receiving;
#X floatatom 789 672 5 0 0 0 - - -;
#X obj 794 388 moses;
#X obj 796 421 moses;
#X floatatom 856 418 5 0 0 0 - - -;
#X obj 1055 348 moses;
#X obj 1054 378 moses;
#X floatatom 1114 384 5 0 0 0 - - -;
#X floatatom 855 378 5 0 0 0 - - -;
#X floatatom 1116 341 5 0 0 0 - - -;
#X floatatom 236 675 5 0 0 0 - - -;
#X floatatom 480 658 5 0 0 0 - - -;
#X obj 196 438 expr $f1;
#X obj 490 431 expr $f1;
#X floatatom 783 466 5 0 0 0 - - -;
#X obj 457 659 bng 15 250 50 0 empty empty empty 17 7 0 10 -262144
-1 -1;
#X obj 212 672 bng 15 250 50 0 empty empty empty 17 7 0 10 -262144
-1 -1;
#X obj 876 687 bng 15 250 50 0 empty empty empty 17 7 0 10 -262144
-1 -1;
#X obj 816 639 process;
#X obj 381 -39 spigot;
#X obj 484 -39 spigot;
#X obj 606 -38 spigot;
#X obj 653 -39 r lar_on;
#X obj 722 -38 spigot;
#X obj 771 -41 r hec_on;
#X obj 498 -79 bng 15 250 50 0 empty empty empty 17 7 0 10 -262144
-1 -1;
#X obj 710 550 r lar_max;
#X obj 710 571 r lar_min;
#X obj 1003 470 r hec_max;
#X obj 1003 491 r hec_min;
#X floatatom 761 656 5 0 0 0 - - -;
#X floatatom 1019 537 5 0 0 0 - - -;
#X floatatom 117 572 5 0 0 0 - - -;
#X floatatom 718 624 5 0 0 0 - - -;
#X floatatom 678 589 5 0 0 0 - - -;
#X floatatom 118 601 5 0 0 0 - - -;
#X floatatom 139 627 5 0 0 0 - - -;
#X floatatom 360 614 5 0 0 0 - - -;
#X floatatom 1124 586 5 0 0 0 - - -;
#X obj 481 634 process;
#X obj 231 647 process;
#X obj 1087 547 process;
#X obj 826 559 r lar_midi_max;
#X obj 826 581 r lar_midi_min;
#X obj 185 582 midi_scale;
#X obj 757 610 midi_scale;
#X obj 1069 507 midi_scale;
#X obj 431 584 midi_scale;
#X obj 424 -39 r RPC_on;
#X obj 530 -39 r Track_on;
#X obj 617 -78 bng 15 250 50 0 empty empty empty 17 7 0 10 -262144
-1 -1;
#X obj 668 -79 bng 15 250 50 0 empty empty empty 17 7 0 10 -262144
-1 -1;
#X obj 751 -81 bng 15 250 50 0 empty empty empty 17 7 0 10 -262144
-1 -1;
#X obj 249 533 r RPC_midi_max;
#X obj 249 554 r RPC_midi_min;
#X obj 178 541 r RPC_max;
#X obj 178 562 r RPC_min;
#X obj 438 531 r TR_max;
#X obj 494 535 r TR_midi_max;
#X obj 494 557 r TR_midi_min;
#X obj 438 552 r TR_min;
#X obj 499 -101 OSC/routeOSC /RPC /Tracks /LArHits /HECHits /EventInfo
;
#X obj 1121 445 r hec_midi_max;
#X obj 1121 467 r hec_midi_min;
#X obj 235 700 r rpc_v;
#X obj 287 719 r rpc_d;
#X obj 482 688 r track_v;
#X obj 546 688 r track_d;
#X obj 169 761 makenote;
#X obj 420 732 makenote;
#X obj 803 753 makenote;
#X obj 1071 669 makenote;
#X floatatom 903 -43 5 0 0 0 - - etmiss;
#X floatatom 944 -47 5 0 0 0 - - effectivesum;
#X obj 843 -80 OSC/routeOSC /etmiss /effectivesum;
#X obj 856 399 r lar_min;
#X obj 856 358 r lar_max;
#X obj 1134 317 r hec_max;
#X obj 1114 362 r hec_min;
#X obj 489 462 moses;
#X obj 491 495 moses;
#X floatatom 551 492 5 0 0 0 - - -;
#X floatatom 550 452 5 0 0 0 - - -;
#X obj 200 476 moses;
#X obj 202 509 moses;
#X floatatom 262 506 5 0 0 0 - - -;
#X floatatom 261 466 5 0 0 0 - - -;
#X obj 262 450 r RPC_max;
#X obj 262 487 r RPC_min;
#X obj 551 432 r TR_max;
#X obj 551 473 r TR_min;
#X obj 561 -78 bng 15 250 50 0 empty empty empty 17 7 0 10 -262144
-1 -1;
#X obj 20 427 s track_d;
#X obj 1071 697 noteout 4;
#X obj 18 398 * 300;
#X obj 501 -137 OSC/routeOSC /0 /1 /2;
#X obj 804 781 noteout 3;
#N canvas 475 197 450 300 beat_select 0;
#X obj 81 51 inlet;
#X obj 187 50 r b_1;
#X obj 234 50 r b_2;
#X obj 282 48 r b_3;
#X obj 328 48 r b_4;
#X obj 206 188 outlet;
#X obj 92 102 float;
#X obj 138 99 + 1;
#X obj 93 144 mod 4;
#X floatatom 207 87 5 0 0 0 - - -;
#X obj 186 18 sel 0 1 2 3;
#X floatatom 250 87 5 0 0 0 - - -;
#X floatatom 290 88 5 0 0 0 - - -;
#X floatatom 336 89 5 0 0 0 - - -;
#X floatatom 45 171 5 0 0 0 - - -;
#X obj 209 115 bng 15 250 50 0 empty empty empty 17 7 0 10 -262144
-1 -1;
#X obj 252 116 bng 15 250 50 0 empty empty empty 17 7 0 10 -262144
-1 -1;
#X obj 292 116 bng 15 250 50 0 empty empty empty 17 7 0 10 -262144
-1 -1;
#X obj 337 116 bng 15 250 50 0 empty empty empty 17 7 0 10 -262144
-1 -1;
#X obj 208 149 spigot;
#X obj 82 80 bng 15 250 50 0 empty empty empty 17 7 0 10 -262144 -1
-1;
#X obj 167 171 bng 15 250 50 0 empty empty empty 17 7 0 10 -262144
-1 -1;
#X connect 0 0 19 0;
#X connect 0 0 20 0;
#X connect 1 0 9 0;
#X connect 2 0 11 0;
#X connect 3 0 12 0;
#X connect 4 0 13 0;
#X connect 6 0 7 0;
#X connect 6 0 8 0;
#X connect 7 0 6 1;
#X connect 8 0 10 0;
#X connect 8 0 14 0;
#X connect 9 0 15 0;
#X connect 9 0 19 1;
#X connect 10 0 9 0;
#X connect 10 1 11 0;
#X connect 10 2 12 0;
#X connect 10 3 13 0;
#X connect 11 0 16 0;
#X connect 11 0 19 1;
#X connect 12 0 17 0;
#X connect 12 0 19 1;
#X connect 13 0 18 0;
#X connect 13 0 19 1;
#X connect 19 0 5 0;
#X connect 19 0 21 0;
#X connect 20 0 6 0;
#X restore 745 696 pd beat_select;
#N canvas 803 22 450 300 hec_beat_select 0;
#X obj 91 61 inlet;
#X obj 216 198 outlet;
#X obj 102 112 float;
#X obj 148 109 + 1;
#X obj 103 154 mod 4;
#X floatatom 217 97 5 0 0 0 - - -;
#X obj 196 28 sel 0 1 2 3;
#X floatatom 260 97 5 0 0 0 - - -;
#X floatatom 300 98 5 0 0 0 - - -;
#X floatatom 346 99 5 0 0 0 - - -;
#X floatatom 53 178 5 0 0 0 - - -;
#X obj 219 125 bng 15 250 50 0 empty empty empty 17 7 0 10 -262144
-1 -1;
#X obj 262 126 bng 15 250 50 0 empty empty empty 17 7 0 10 -262144
-1 -1;
#X obj 302 126 bng 15 250 50 0 empty empty empty 17 7 0 10 -262144
-1 -1;
#X obj 347 126 bng 15 250 50 0 empty empty empty 17 7 0 10 -262144
-1 -1;
#X obj 218 159 spigot;
#X obj 92 90 bng 15 250 50 0 empty empty empty 17 7 0 10 -262144 -1
-1;
#X obj 177 181 bng 15 250 50 0 empty empty empty 17 7 0 10 -262144
-1 -1;
#X obj 197 60 r h_1;
#X obj 244 60 r h_2;
#X obj 292 58 r h_3;
#X obj 338 58 r h_4;
#X connect 0 0 15 0;
#X connect 0 0 16 0;
#X connect 2 0 3 0;
#X connect 2 0 4 0;
#X connect 3 0 2 1;
#X connect 4 0 6 0;
#X connect 4 0 10 0;
#X connect 5 0 11 0;
#X connect 5 0 15 1;
#X connect 6 0 5 0;
#X connect 6 1 7 0;
#X connect 6 2 8 0;
#X connect 6 3 9 0;
#X connect 7 0 12 0;
#X connect 7 0 15 1;
#X connect 8 0 13 0;
#X connect 8 0 15 1;
#X connect 9 0 14 0;
#X connect 9 0 15 1;
#X connect 15 0 1 0;
#X connect 15 0 17 0;
#X connect 16 0 2 0;
#X connect 18 0 5 0;
#X connect 19 0 7 0;
#X connect 20 0 8 0;
#X connect 21 0 9 0;
#X restore 1065 614 pd hec_beat_select;
#X floatatom 517 731 5 0 0 0 - - -;
#X floatatom 568 735 5 0 0 0 - - -;
#X text 14 350 Example of data driven duration;
#N canvas 1219 22 495 475 minmaxgeo 0;
#X obj 95 133 >;
#X obj 137 132 <;
#X obj 178 132 >;
#X obj 218 131 <;
#X obj 55 97 r min_eta;
#X obj 121 95 r max_eta;
#X obj 188 95 r min_phi;
#X obj 258 94 r max_phi;
#X obj 118 168 &&;
#X obj 192 167 &&;
#X obj 158 198 &&;
#X obj 59 158 bng 15 250 50 0 empty empty empty 17 7 0 10 -262144 -1
-1;
#X floatatom 39 135 5 0 0 0 - - -;
#X floatatom 113 206 5 0 0 0 - - -;
#X floatatom 212 198 5 0 0 0 - - -;
#X floatatom 124 233 5 0 0 0 - - -;
#X floatatom 248 50 5 0 0 0 - - -;
#X obj 150 365 outlet;
#X obj 92 27 inlet;
#X obj 150 26 inlet;
#X obj 201 24 inlet;
#X floatatom 59 66 5 0 0 0 - - -;
#X floatatom 195 66 5 0 0 0 - - -;
#X floatatom 60 196 5 0 0 0 - - -;
#X obj 210 279 spigot;
#X floatatom 209 313 5 0 0 0 - - -;
#X obj 162 234 bng 15 250 50 0 empty empty empty 17 7 0 10 -262144
-1 -1;
#X connect 0 0 8 0;
#X connect 0 0 11 0;
#X connect 0 0 23 0;
#X connect 1 0 8 1;
#X connect 2 0 9 0;
#X connect 3 0 9 1;
#X connect 4 0 0 1;
#X connect 4 0 12 0;
#X connect 5 0 1 1;
#X connect 6 0 2 1;
#X connect 7 0 3 1;
#X connect 8 0 10 0;
#X connect 8 0 13 0;
#X connect 9 0 10 1;
#X connect 9 0 14 0;
#X connect 10 0 15 0;
#X connect 10 0 24 1;
#X connect 10 0 26 0;
#X connect 18 0 0 0;
#X connect 18 0 1 0;
#X connect 18 0 21 0;
#X connect 19 0 2 0;
#X connect 19 0 3 0;
#X connect 19 0 22 0;
#X connect 20 0 16 0;
#X connect 20 0 24 0;
#X connect 24 0 25 0;
#X connect 24 0 17 0;
#X restore 759 340 pd minmaxgeo;
#N canvas 1109 429 495 475 minmaxgeo 0;
#X obj 95 133 >;
#X obj 137 132 <;
#X obj 178 132 >;
#X obj 218 131 <;
#X obj 55 97 r min_eta;
#X obj 121 95 r max_eta;
#X obj 188 95 r min_phi;
#X obj 258 94 r max_phi;
#X obj 118 168 &&;
#X obj 192 167 &&;
#X obj 158 198 &&;
#X obj 59 158 bng 15 250 50 0 empty empty empty 17 7 0 10 -262144 -1
-1;
#X floatatom 39 135 5 0 0 0 - - -;
#X floatatom 113 206 5 0 0 0 - - -;
#X floatatom 212 198 5 0 0 0 - - -;
#X floatatom 124 233 5 0 0 0 - - -;
#X floatatom 248 50 5 0 0 0 - - -;
#X obj 150 365 outlet;
#X obj 92 27 inlet;
#X obj 150 26 inlet;
#X obj 201 24 inlet;
#X floatatom 59 66 5 0 0 0 - - -;
#X floatatom 195 66 5 0 0 0 - - -;
#X floatatom 60 196 5 0 0 0 - - -;
#X obj 210 279 spigot;
#X floatatom 209 313 5 0 0 0 - - -;
#X connect 0 0 8 0;
#X connect 0 0 11 0;
#X connect 0 0 23 0;
#X connect 1 0 8 1;
#X connect 2 0 9 0;
#X connect 3 0 9 1;
#X connect 4 0 0 1;
#X connect 4 0 12 0;
#X connect 5 0 1 1;
#X connect 6 0 2 1;
#X connect 7 0 3 1;
#X connect 8 0 10 0;
#X connect 8 0 13 0;
#X connect 9 0 10 1;
#X connect 9 0 14 0;
#X connect 10 0 15 0;
#X connect 10 0 24 1;
#X connect 18 0 0 0;
#X connect 18 0 1 0;
#X connect 18 0 21 0;
#X connect 19 0 2 0;
#X connect 19 0 3 0;
#X connect 19 0 22 0;
#X connect 20 0 16 0;
#X connect 20 0 24 0;
#X connect 24 0 25 0;
#X connect 24 0 17 0;
#X restore 1069 313 pd minmaxgeo;
#N canvas 941 649 495 475 minmaxgeo 0;
#X obj 95 133 >;
#X obj 137 132 <;
#X obj 178 132 >;
#X obj 218 131 <;
#X obj 55 97 r min_eta;
#X obj 121 95 r max_eta;
#X obj 188 95 r min_phi;
#X obj 258 94 r max_phi;
#X obj 118 168 &&;
#X obj 192 167 &&;
#X obj 158 198 &&;
#X obj 59 158 bng 15 250 50 0 empty empty empty 17 7 0 10 -262144 -1
-1;
#X floatatom 39 135 5 0 0 0 - - -;
#X floatatom 113 206 5 0 0 0 - - -;
#X floatatom 212 198 5 0 0 0 - - -;
#X floatatom 124 233 5 0 0 0 - - -;
#X floatatom 248 50 5 0 0 0 - - -;
#X obj 150 365 outlet;
#X obj 92 27 inlet;
#X obj 150 26 inlet;
#X obj 201 24 inlet;
#X floatatom 59 66 5 0 0 0 - - -;
#X floatatom 195 66 5 0 0 0 - - -;
#X floatatom 60 196 5 0 0 0 - - -;
#X obj 210 279 spigot;
#X floatatom 209 313 5 0 0 0 - - -;
#X connect 0 0 8 0;
#X connect 0 0 11 0;
#X connect 0 0 23 0;
#X connect 1 0 8 1;
#X connect 2 0 9 0;
#X connect 3 0 9 1;
#X connect 4 0 0 1;
#X connect 4 0 12 0;
#X connect 5 0 1 1;
#X connect 6 0 2 1;
#X connect 7 0 3 1;
#X connect 8 0 10 0;
#X connect 8 0 13 0;
#X connect 9 0 10 1;
#X connect 9 0 14 0;
#X connect 10 0 15 0;
#X connect 10 0 24 1;
#X connect 18 0 0 0;
#X connect 18 0 1 0;
#X connect 18 0 21 0;
#X connect 19 0 2 0;
#X connect 19 0 3 0;
#X connect 19 0 22 0;
#X connect 20 0 16 0;
#X connect 20 0 24 0;
#X connect 24 0 25 0;
#X connect 24 0 17 0;
#X restore 217 389 pd minmaxgeo;
#N canvas 1170 543 495 475 minmaxgeo 0;
#X obj 95 133 >;
#X obj 137 132 <;
#X obj 178 132 >;
#X obj 218 131 <;
#X obj 55 97 r min_eta;
#X obj 121 95 r max_eta;
#X obj 188 95 r min_phi;
#X obj 258 94 r max_phi;
#X obj 118 168 &&;
#X obj 192 167 &&;
#X obj 158 198 &&;
#X obj 59 158 bng 15 250 50 0 empty empty empty 17 7 0 10 -262144 -1
-1;
#X floatatom 39 135 5 0 0 0 - - -;
#X floatatom 113 206 5 0 0 0 - - -;
#X floatatom 212 198 5 0 0 0 - - -;
#X floatatom 124 233 5 0 0 0 - - -;
#X floatatom 248 50 5 0 0 0 - - -;
#X obj 150 365 outlet;
#X obj 92 27 inlet;
#X obj 150 26 inlet;
#X obj 201 24 inlet;
#X floatatom 59 66 5 0 0 0 - - -;
#X floatatom 195 66 5 0 0 0 - - -;
#X floatatom 60 196 5 0 0 0 - - -;
#X obj 210 279 spigot;
#X floatatom 209 313 5 0 0 0 - - -;
#X connect 0 0 8 0;
#X connect 0 0 11 0;
#X connect 0 0 23 0;
#X connect 1 0 8 1;
#X connect 2 0 9 0;
#X connect 3 0 9 1;
#X connect 4 0 0 1;
#X connect 4 0 12 0;
#X connect 5 0 1 1;
#X connect 6 0 2 1;
#X connect 7 0 3 1;
#X connect 8 0 10 0;
#X connect 8 0 13 0;
#X connect 9 0 10 1;
#X connect 9 0 14 0;
#X connect 10 0 15 0;
#X connect 10 0 24 1;
#X connect 18 0 0 0;
#X connect 18 0 1 0;
#X connect 18 0 21 0;
#X connect 19 0 2 0;
#X connect 19 0 3 0;
#X connect 19 0 22 0;
#X connect 20 0 16 0;
#X connect 20 0 24 0;
#X connect 24 0 25 0;
#X connect 24 0 17 0;
#X restore 511 387 pd minmaxgeo;
#X obj 17 374 r track_pt;
#X obj 238 -3 prepend set;
#X floatatom 201 296 5 0 0 0 - - -;
#X floatatom 242 295 5 0 0 0 - - -;
#X floatatom 287 294 5 0 0 0 - - -;
#X text 202 311 eta;
#X text 246 311 phi;
#X text 286 310 theta;
#X obj 227 267 unpack f f f;
#X obj 414 -3 prepend set;
#X floatatom 374 294 5 0 0 0 - - -;
#X floatatom 415 293 5 0 0 0 - - -;
#X floatatom 460 292 5 0 0 0 - - -;
#X text 375 310 eta;
#X text 419 309 phi;
#X obj 400 265 unpack f f f f f;
#X floatatom 500 292 5 0 0 0 - - -;
#X text 462 308 e;
#X text 499 308 theta;
#X text 545 307 pt;
#X floatatom 543 293 5 0 0 0 - - -;
#X msg 687 43 2.39834 -1.04939 0.055 0.18124;
#X obj 689 -1 prepend set;
#X floatatom 659 289 5 0 0 0 - - -;
#X floatatom 700 288 5 0 0 0 - - -;
#X floatatom 743 289 5 0 0 0 - - -;
#X text 660 305 eta;
#X text 704 304 phi;
#X floatatom 785 287 5 0 0 0 - - -;
#X text 747 303 e;
#X text 784 303 theta;
#X obj 685 260 unpack f f f f;
#X msg 931 32 2.36113 -0.440021 1.04 0.188071;
#X obj 934 -13 prepend set;
#X floatatom 949 283 5 0 0 0 - - -;
#X floatatom 990 282 5 0 0 0 - - -;
#X floatatom 1035 281 5 0 0 0 - - -;
#X text 950 300 eta;
#X text 994 298 phi;
#X floatatom 1075 281 5 0 0 0 - - -;
#X text 1037 297 e;
#X text 1074 297 theta;
#X obj 975 254 unpack f f f f;
#X obj 373 44 bng 15 250 50 0 empty metrob empty 17 7 0 10 -262144
-1 -1;
#X obj 655 21 bng 15 250 50 0 empty metrob empty 17 7 0 10 -262144
-1 -1;
#X obj 918 11 bng 15 250 50 0 empty metrob empty 17 7 0 10 -262144
-1 -1;
#N canvas 363 22 450 300 highhat_beat_select 0;
#X obj 91 61 inlet;
#X obj 216 198 outlet;
#X obj 102 112 float;
#X obj 148 109 + 1;
#X obj 103 154 mod 4;
#X floatatom 217 97 5 0 0 0 - - -;
#X obj 196 28 sel 0 1 2 3;
#X floatatom 260 97 5 0 0 0 - - -;
#X floatatom 300 98 5 0 0 0 - - -;
#X floatatom 346 99 5 0 0 0 - - -;
#X floatatom 55 181 5 0 0 0 - - -;
#X obj 219 125 bng 15 250 50 0 empty empty empty 17 7 0 10 -262144
-1 -1;
#X obj 262 126 bng 15 250 50 0 empty empty empty 17 7 0 10 -262144
-1 -1;
#X obj 302 126 bng 15 250 50 0 empty empty empty 17 7 0 10 -262144
-1 -1;
#X obj 347 126 bng 15 250 50 0 empty empty empty 17 7 0 10 -262144
-1 -1;
#X obj 218 159 spigot;
#X obj 92 90 bng 15 250 50 0 empty empty empty 17 7 0 10 -262144 -1
-1;
#X obj 177 181 bng 15 250 50 0 empty empty empty 17 7 0 10 -262144
-1 -1;
#X obj 197 60 r t_1;
#X obj 244 60 r t_2;
#X obj 292 58 r t_3;
#X obj 338 58 r t_4;
#X connect 0 0 15 0;
#X connect 0 0 16 0;
#X connect 2 0 3 0;
#X connect 2 0 4 0;
#X connect 3 0 2 1;
#X connect 4 0 6 0;
#X connect 4 0 10 0;
#X connect 5 0 11 0;
#X connect 5 0 15 1;
#X connect 6 0 5 0;
#X connect 6 1 7 0;
#X connect 6 2 8 0;
#X connect 6 3 9 0;
#X connect 7 0 12 0;
#X connect 7 0 15 1;
#X connect 8 0 13 0;
#X connect 8 0 15 1;
#X connect 9 0 14 0;
#X connect 9 0 15 1;
#X connect 15 0 1 0;
#X connect 15 0 17 0;
#X connect 16 0 2 0;
#X connect 18 0 5 0;
#X connect 19 0 7 0;
#X connect 20 0 8 0;
#X connect 21 0 9 0;
#X restore 313 -109 pd highhat_beat_select;
#X obj 711 -76 s beat;
#X obj 170 789 noteout 1;
#X obj 425 757 noteout 2;
#X floatatom 717 353 5 0 0 0 - - -;
#X obj 500 -189 iemnet/udpreceive 5001;
#X obj 155 -4 metro;
#X obj 176 -50 r tempo;
#X obj 152 -54 bng 15 250 50 0 empty initialize empty 17 7 0 10 -262144
-1 -1;
#X floatatom 206 -27 5 0 0 0 - - -;
#X msg 229 85 1.01842 1.03815 0.693175;
#X msg 111 -51 stop;
#X obj 269 -52 bng 15 250 50 0 empty empty empty 17 7 0 10 -262144
-1 -1;
#X obj 195 34 bng 15 250 50 0 empty empty empty 17 7 0 10 -262144 -1
-1;
#X obj 386 715 bng 15 250 50 0 empty empty empty 17 7 0 10 -262144
-1 -1;
#X floatatom 134 695 5 0 0 0 - test_rpc -;
#X floatatom 385 689 5 0 0 0 - test_track -;
#X floatatom 705 703 5 0 0 0 - test_lar -;
#X floatatom 1015 639 5 0 0 0 - test_hec -;
#X obj 162 127 prepend set;
#X msg 169 192 1.01842 1.03815 0.693175;
#X obj 247 127 change;
#X obj 390 124 prepend set;
#X obj 473 124 change;
#X msg 387 179 0.836591 -2.10158 5 0.817566 3.10582;
#X obj 676 104 prepend set;
#X obj 763 104 change;
#X msg 679 178 2.39834 -1.04939 0.055 0.18124;
#X obj 922 94 prepend set;
#X obj 1015 95 change;
#X msg 941 169 2.36113 -0.440021 1.04 0.188071;
#X obj 1037 693 bng 15 250 50 0 empty empty empty 17 7 0 10 -262144
-1 -1;
#X obj 307 -44 noteout 5;
#N canvas 801 242 1104 398 hec_bar 0;
#X obj 122 132 float;
#X obj 168 129 + 1;
#X obj 123 174 mod 4;
#X floatatom 75 201 5 0 0 0 - - -;
#X obj 112 110 bng 15 250 50 0 empty empty empty 17 7 0 10 -262144
-1 -1;
#X obj 220 49 sel 0 1 2 3;
#X obj 69 81 inlet;
#X obj 268 200 outlet;
#X obj 537 197 outlet;
#X obj 266 142 r hec_1_v;
#X floatatom 268 173 5 0 0 0 - - -;
#X obj 340 143 r hec_2_v;
#X floatatom 339 170 5 0 0 0 - - -;
#X obj 414 142 r hec_3_v;
#X floatatom 413 172 5 0 0 0 - - -;
#X obj 490 143 r hec_4_v;
#X floatatom 489 169 5 0 0 0 - - -;
#X obj 588 142 r hec_1_d;
#X obj 656 143 r hec_2_d;
#X obj 791 142 r hec_4_d;
#X obj 724 142 r hec_3_d;
#X floatatom 587 168 5 0 0 0 - - -;
#X floatatom 657 167 5 0 0 0 - - -;
#X floatatom 725 167 5 0 0 0 - - -;
#X floatatom 791 169 5 0 0 0 - - -;
#X connect 0 0 1 0;
#X connect 0 0 2 0;
#X connect 1 0 0 1;
#X connect 2 0 3 0;
#X connect 2 0 5 0;
#X connect 4 0 0 0;
#X connect 5 0 10 0;
#X connect 5 0 21 0;
#X connect 5 1 12 0;
#X connect 5 1 22 0;
#X connect 5 2 14 0;
#X connect 5 2 23 0;
#X connect 5 3 16 0;
#X connect 5 3 24 0;
#X connect 6 0 4 0;
#X connect 9 0 10 0;
#X connect 10 0 7 0;
#X connect 11 0 12 0;
#X connect 12 0 7 0;
#X connect 13 0 14 0;
#X connect 14 0 7 0;
#X connect 15 0 16 0;
#X connect 16 0 7 0;
#X connect 17 0 21 0;
#X connect 18 0 22 0;
#X connect 19 0 24 0;
#X connect 20 0 23 0;
#X connect 21 0 8 0;
#X connect 22 0 8 0;
#X connect 23 0 8 0;
#X connect 24 0 8 0;
#X restore 1139 638 pd hec_bar;
#X obj 1192 601 bng 15 250 50 0 empty empty empty 17 7 0 10 -262144
-1 -1;
#N canvas 661 468 895 410 lar_bar 0;
#X obj 132 142 float;
#X obj 178 139 + 1;
#X obj 133 184 mod 4;
#X floatatom 85 211 5 0 0 0 - - -;
#X obj 122 120 bng 15 250 50 0 empty empty empty 17 7 0 10 -262144
-1 -1;
#X obj 230 59 sel 0 1 2 3;
#X obj 79 91 inlet;
#X obj 278 210 outlet;
#X obj 547 207 outlet;
#X floatatom 278 183 5 0 0 0 - - -;
#X floatatom 349 180 5 0 0 0 - - -;
#X floatatom 423 182 5 0 0 0 - - -;
#X floatatom 499 179 5 0 0 0 - - -;
#X floatatom 597 178 5 0 0 0 - - -;
#X floatatom 667 177 5 0 0 0 - - -;
#X floatatom 735 177 5 0 0 0 - - -;
#X floatatom 801 179 5 0 0 0 - - -;
#X obj 276 152 r lar_1_v;
#X obj 350 153 r lar_2_v;
#X obj 424 152 r lar_3_v;
#X obj 500 153 r lar_4_v;
#X obj 598 152 r lar_1_d;
#X obj 666 153 r lar_2_d;
#X obj 734 152 r lar_3_d;
#X obj 801 152 r lar_4_d;
#X connect 0 0 1 0;
#X connect 0 0 2 0;
#X connect 1 0 0 1;
#X connect 2 0 3 0;
#X connect 2 0 5 0;
#X connect 4 0 0 0;
#X connect 5 0 9 0;
#X connect 5 0 13 0;
#X connect 5 1 10 0;
#X connect 5 1 14 0;
#X connect 5 2 11 0;
#X connect 5 2 15 0;
#X connect 5 3 12 0;
#X connect 5 3 16 0;
#X connect 6 0 4 0;
#X connect 9 0 7 0;
#X connect 10 0 7 0;
#X connect 11 0 7 0;
#X connect 12 0 7 0;
#X connect 13 0 8 0;
#X connect 14 0 8 0;
#X connect 15 0 8 0;
#X connect 16 0 8 0;
#X connect 17 0 9 0;
#X connect 18 0 10 0;
#X connect 19 0 11 0;
#X connect 20 0 12 0;
#X connect 21 0 13 0;
#X connect 22 0 14 0;
#X connect 23 0 15 0;
#X connect 24 0 16 0;
#X restore 867 709 pd lar_bar;
#X obj 309 -82 makenote 380 200;
#X msg 398 83 0.836591 -2.10158 5 0.817566 3.10582;
#X obj 147 28 bng 15 250 50 0 metrob empty empty 17 7 0 10 -262144
-1 -1;
#X obj 301 -168 bng 15 250 50 0 empty metrob empty 17 7 0 10 -262144
-1 -1;
#X obj 310 -131 nbx 5 14 0 180 0 1 empty empty empty 0 -8 0 10 -262144
-1 -1 49 256;
#X obj 1039 423 bng 15 250 50 0 empty empty empty 17 7 0 10 -262144
-1 -1;
#X obj 1157 563 t f b;
#X obj 835 663 t f b;
#X obj 732 758 bng 15 250 50 0 empty empty empty 17 7 0 10 -262144
-1 -1;
#X connect 0 0 96 0;
#X connect 2 0 98 0;
#X connect 3 0 4 0;
#X connect 4 1 15 0;
#X connect 5 0 4 1;
#X connect 6 0 7 0;
#X connect 7 1 47 2;
#X connect 7 1 194 0;
#X connect 8 0 7 1;
#X connect 9 0 3 1;
#X connect 10 0 6 1;
#X connect 11 0 69 0;
#X connect 12 0 70 0;
#X connect 12 0 167 0;
#X connect 13 0 84 0;
#X connect 14 0 80 0;
#X connect 15 0 46 2;
#X connect 18 0 188 0;
#X connect 19 0 196 0;
#X connect 20 0 108 0;
#X connect 21 0 116 0;
#X connect 22 0 129 0;
#X connect 23 0 22 1;
#X connect 24 0 140 0;
#X connect 25 0 24 1;
#X connect 27 0 35 0;
#X connect 27 0 46 1;
#X connect 28 0 34 0;
#X connect 28 0 46 0;
#X connect 29 0 47 1;
#X connect 30 0 47 0;
#X connect 39 0 99 0;
#X connect 40 0 12 0;
#X connect 40 0 16 0;
#X connect 41 0 11 0;
#X connect 41 0 17 0;
#X connect 42 0 195 0;
#X connect 43 0 46 4;
#X connect 44 0 46 3;
#X connect 45 0 37 0;
#X connect 45 0 41 0;
#X connect 46 0 31 0;
#X connect 46 0 19 0;
#X connect 47 0 32 0;
#X connect 47 0 42 0;
#X connect 48 0 38 0;
#X connect 48 0 40 0;
#X connect 49 0 20 1;
#X connect 50 0 21 1;
#X connect 54 0 45 4;
#X connect 55 0 45 3;
#X connect 56 0 33 0;
#X connect 56 0 45 1;
#X connect 57 0 36 0;
#X connect 57 0 45 0;
#X connect 58 0 48 1;
#X connect 59 0 48 4;
#X connect 60 0 48 3;
#X connect 61 0 48 0;
#X connect 62 0 20 0;
#X connect 62 0 26 0;
#X connect 62 1 21 0;
#X connect 62 1 92 0;
#X connect 62 2 22 0;
#X connect 62 2 51 0;
#X connect 62 3 24 0;
#X connect 62 3 52 0;
#X connect 62 3 154 0;
#X connect 62 4 53 0;
#X connect 62 4 75 0;
#X connect 63 0 47 4;
#X connect 64 0 47 3;
#X connect 65 0 69 1;
#X connect 66 0 69 2;
#X connect 67 0 70 1;
#X connect 67 0 100 0;
#X connect 68 0 70 2;
#X connect 68 0 101 0;
#X connect 69 0 155 0;
#X connect 69 1 155 1;
#X connect 70 0 156 0;
#X connect 70 1 156 1;
#X connect 71 0 97 0;
#X connect 71 1 97 1;
#X connect 72 0 94 0;
#X connect 72 1 94 1;
#X connect 75 0 73 0;
#X connect 75 1 74 0;
#X connect 76 0 5 0;
#X connect 77 0 9 0;
#X connect 78 0 10 0;
#X connect 79 0 8 0;
#X connect 80 0 81 0;
#X connect 81 1 48 2;
#X connect 82 0 81 1;
#X connect 83 0 80 1;
#X connect 84 0 85 0;
#X connect 85 1 45 2;
#X connect 86 0 85 1;
#X connect 87 0 84 1;
#X connect 88 0 87 0;
#X connect 89 0 86 0;
#X connect 90 0 83 0;
#X connect 91 0 82 0;
#X connect 95 0 93 0;
#X connect 96 0 62 0;
#X connect 96 1 62 0;
#X connect 96 2 62 0;
#X connect 98 0 71 0;
#X connect 98 0 197 0;
#X connect 99 0 72 0;
#X connect 99 0 184 0;
#X connect 103 0 3 0;
#X connect 103 0 157 0;
#X connect 104 0 6 0;
#X connect 105 0 13 0;
#X connect 106 0 14 0;
#X connect 107 0 95 0;
#X connect 108 0 163 0;
#X connect 108 0 166 0;
#X connect 109 0 105 0;
#X connect 110 0 105 1;
#X connect 110 0 105 2;
#X connect 115 0 109 0;
#X connect 115 1 110 0;
#X connect 115 2 111 0;
#X connect 116 0 190 0;
#X connect 116 0 150 0;
#X connect 117 0 106 0;
#X connect 118 0 106 1;
#X connect 119 0 106 2;
#X connect 122 0 117 0;
#X connect 122 1 118 0;
#X connect 122 2 119 0;
#X connect 122 3 123 0;
#X connect 122 4 127 0;
#X connect 128 0 178 0;
#X connect 128 0 179 0;
#X connect 129 0 128 0;
#X connect 129 0 151 0;
#X connect 130 0 103 0;
#X connect 131 0 103 1;
#X connect 132 0 103 2;
#X connect 138 0 130 0;
#X connect 138 1 131 0;
#X connect 138 2 132 0;
#X connect 138 3 135 0;
#X connect 139 0 181 0;
#X connect 139 0 182 0;
#X connect 140 0 139 0;
#X connect 140 0 152 0;
#X connect 141 0 104 0;
#X connect 142 0 104 1;
#X connect 143 0 104 2;
#X connect 149 0 141 0;
#X connect 149 1 142 0;
#X connect 149 2 143 0;
#X connect 149 3 146 0;
#X connect 150 0 190 0;
#X connect 151 0 128 0;
#X connect 152 0 139 0;
#X connect 153 0 189 0;
#X connect 158 0 0 0;
#X connect 159 0 191 0;
#X connect 160 0 159 1;
#X connect 160 0 162 0;
#X connect 161 0 159 0;
#X connect 163 0 172 0;
#X connect 163 0 174 0;
#X connect 164 0 159 0;
#X connect 166 0 163 0;
#X connect 168 0 69 0;
#X connect 169 0 70 0;
#X connect 170 0 71 0;
#X connect 171 0 72 0;
#X connect 172 0 173 0;
#X connect 173 0 115 0;
#X connect 174 0 173 0;
#X connect 175 0 177 0;
#X connect 176 0 177 0;
#X connect 177 0 122 0;
#X connect 178 0 180 0;
#X connect 179 0 180 0;
#X connect 180 0 138 0;
#X connect 181 0 183 0;
#X connect 182 0 183 0;
#X connect 183 0 149 0;
#X connect 186 0 72 1;
#X connect 186 1 72 2;
#X connect 187 0 186 0;
#X connect 188 0 71 1;
#X connect 188 1 71 2;
#X connect 189 0 185 0;
#X connect 189 0 165 0;
#X connect 189 1 185 1;
#X connect 190 0 175 0;
#X connect 190 0 176 0;
#X connect 192 0 193 0;
#X connect 193 0 153 0;
#X connect 195 0 39 0;
#X connect 195 1 187 0;
#X connect 196 0 2 0;
#X connect 196 1 18 0;
#X coords 0 -1 1 1 1 1 1 100 100;
