#N canvas 29 22 1431 752 10;
#X obj 500 -163 OSC/unpackOSC;
#X text 332 -186 OSC Data Receiving;
#X floatatom 795 535 5 0 0 0 - - -;
#X obj 800 251 moses;
#X obj 802 284 moses;
#X floatatom 862 281 5 0 0 0 - - -;
#X obj 1009 208 moses;
#X obj 1008 238 moses;
#X floatatom 1068 244 5 0 0 0 - - -;
#X floatatom 861 241 5 0 0 0 - - -;
#X floatatom 1070 201 5 0 0 0 - - -;
#X floatatom 231 548 5 0 0 0 - - -;
#X floatatom 482 535 5 0 0 0 - - -;
#X obj 195 314 expr $f1;
#X obj 492 308 expr $f1;
#X floatatom 789 329 5 0 0 0 - - -;
#X obj 459 536 bng 15 250 50 0 empty empty empty 17 7 0 10 -262144
-1 -1;
#X obj 211 548 bng 15 250 50 0 empty empty empty 17 7 0 10 -262144
-1 -1;
#X obj 857 540 bng 15 250 50 0 empty empty empty 17 7 0 10 -262144
-1 -1;
#X obj 822 502 process;
#X obj 381 -39 spigot;
#X obj 484 -39 spigot;
#X obj 606 -38 spigot;
#X obj 653 -39 r lar_on;
#X obj 722 -38 spigot;
#X obj 771 -41 r hec_on;
#X obj 1049 433 bng 15 250 50 0 empty empty empty 17 7 0 10 -262144
-1 -1;
#X obj 498 -79 bng 15 250 50 0 empty empty empty 17 7 0 10 -262144
-1 -1;
#X obj 716 413 r lar_max;
#X obj 716 434 r lar_min;
#X obj 957 330 r hec_max;
#X obj 957 351 r hec_min;
#X floatatom 767 519 5 0 0 0 - - -;
#X floatatom 973 397 5 0 0 0 - - -;
#X floatatom 116 448 5 0 0 0 - - -;
#X floatatom 724 487 5 0 0 0 - - -;
#X floatatom 684 452 5 0 0 0 - - -;
#X floatatom 117 477 5 0 0 0 - - -;
#X floatatom 138 503 5 0 0 0 - - -;
#X floatatom 362 491 5 0 0 0 - - -;
#X floatatom 1071 436 5 0 0 0 - - -;
#X obj 483 511 process;
#X obj 230 523 process;
#X obj 1041 407 process;
#X obj 832 422 r lar_midi_max;
#X obj 832 444 r lar_midi_min;
#X obj 184 458 midi_scale;
#X obj 763 473 midi_scale;
#X obj 1023 367 midi_scale;
#X obj 433 461 midi_scale;
#X obj 424 -39 r RPC_on;
#X obj 530 -39 r Track_on;
#X obj 617 -78 bng 15 250 50 0 empty empty empty 17 7 0 10 -262144
-1 -1;
#X obj 668 -79 bng 15 250 50 0 empty empty empty 17 7 0 10 -262144
-1 -1;
#X obj 751 -81 bng 15 250 50 0 empty empty empty 17 7 0 10 -262144
-1 -1;
#X obj 248 409 r RPC_midi_max;
#X obj 248 430 r RPC_midi_min;
#X obj 177 417 r RPC_max;
#X obj 177 438 r RPC_min;
#X obj 440 408 r TR_max;
#X obj 496 412 r TR_midi_max;
#X obj 496 434 r TR_midi_min;
#X obj 440 429 r TR_min;
#X obj 499 -101 OSC/routeOSC /RPC /Tracks /LArHits /HECHits /EventInfo
;
#X obj 1075 305 r hec_midi_max;
#X obj 1075 327 r hec_midi_min;
#X obj 234 576 r rpc_v;
#X obj 286 595 r rpc_d;
#X obj 484 565 r track_v;
#X obj 548 565 r track_d;
#X obj 867 562 r lar_v;
#X obj 923 571 r lar_d;
#X obj 1115 437 r hec_v;
#X obj 1168 435 r hec_d;
#X obj 168 637 makenote;
#X obj 422 609 makenote;
#X obj 809 616 makenote;
#X obj 1025 529 makenote;
#X floatatom 903 -43 5 0 0 0 - - etmiss;
#X floatatom 944 -47 5 0 0 0 - - effectivesum;
#X obj 843 -80 OSC/routeOSC /etmiss /effectivesum;
#X obj 862 262 r lar_min;
#X obj 862 221 r lar_max;
#X obj 1088 177 r hec_max;
#X obj 1068 222 r hec_min;
#X obj 491 339 moses;
#X obj 493 372 moses;
#X floatatom 553 369 5 0 0 0 - - -;
#X floatatom 552 329 5 0 0 0 - - -;
#X obj 199 352 moses;
#X obj 201 385 moses;
#X floatatom 261 382 5 0 0 0 - - -;
#X floatatom 260 342 5 0 0 0 - - -;
#X obj 261 326 r RPC_max;
#X obj 261 363 r RPC_min;
#X obj 553 309 r TR_max;
#X obj 553 350 r TR_min;
#X obj 561 -78 bng 15 250 50 0 empty empty empty 17 7 0 10 -262144
-1 -1;
#X obj 617 562 s track_d;
#X obj 1025 557 noteout 4;
#X obj 615 533 * 300;
#X obj 501 -137 OSC/routeOSC /0 /1 /2;
#X obj 810 644 noteout 3;
#N canvas 475 197 450 300 beat_select 0;
#X obj 81 51 inlet;
#X obj 187 50 r b_1;
#X obj 234 50 r b_2;
#X obj 282 48 r b_3;
#X obj 328 48 r b_4;
#X obj 206 188 outlet;
#X obj 92 102 float;
#X obj 138 99 + 1;
#X obj 93 144 mod 4;
#X floatatom 207 87 5 0 0 0 - - -;
#X obj 186 18 sel 0 1 2 3;
#X floatatom 250 87 5 0 0 0 - - -;
#X floatatom 290 88 5 0 0 0 - - -;
#X floatatom 336 89 5 0 0 0 - - -;
#X floatatom 45 171 5 0 0 0 - - -;
#X obj 209 115 bng 15 250 50 0 empty empty empty 17 7 0 10 -262144
-1 -1;
#X obj 252 116 bng 15 250 50 0 empty empty empty 17 7 0 10 -262144
-1 -1;
#X obj 292 116 bng 15 250 50 0 empty empty empty 17 7 0 10 -262144
-1 -1;
#X obj 337 116 bng 15 250 50 0 empty empty empty 17 7 0 10 -262144
-1 -1;
#X obj 208 149 spigot;
#X obj 82 80 bng 15 250 50 0 empty empty empty 17 7 0 10 -262144 -1
-1;
#X obj 167 171 bng 15 250 50 0 empty empty empty 17 7 0 10 -262144
-1 -1;
#X connect 0 0 19 0;
#X connect 0 0 20 0;
#X connect 1 0 9 0;
#X connect 2 0 11 0;
#X connect 3 0 12 0;
#X connect 4 0 13 0;
#X connect 6 0 7 0;
#X connect 6 0 8 0;
#X connect 7 0 6 1;
#X connect 8 0 10 0;
#X connect 8 0 14 0;
#X connect 9 0 15 0;
#X connect 9 0 19 1;
#X connect 10 0 9 0;
#X connect 10 1 11 0;
#X connect 10 2 12 0;
#X connect 10 3 13 0;
#X connect 11 0 16 0;
#X connect 11 0 19 1;
#X connect 12 0 17 0;
#X connect 12 0 19 1;
#X connect 13 0 18 0;
#X connect 13 0 19 1;
#X connect 19 0 5 0;
#X connect 19 0 21 0;
#X connect 20 0 6 0;
#X restore 744 576 pd beat_select;
#N canvas 803 22 450 300 hec_beat_select 0;
#X obj 91 61 inlet;
#X obj 216 198 outlet;
#X obj 102 112 float;
#X obj 148 109 + 1;
#X obj 103 154 mod 4;
#X floatatom 217 97 5 0 0 0 - - -;
#X obj 196 28 sel 0 1 2 3;
#X floatatom 260 97 5 0 0 0 - - -;
#X floatatom 300 98 5 0 0 0 - - -;
#X floatatom 346 99 5 0 0 0 - - -;
#X floatatom 53 178 5 0 0 0 - - -;
#X obj 219 125 bng 15 250 50 0 empty empty empty 17 7 0 10 -262144
-1 -1;
#X obj 262 126 bng 15 250 50 0 empty empty empty 17 7 0 10 -262144
-1 -1;
#X obj 302 126 bng 15 250 50 0 empty empty empty 17 7 0 10 -262144
-1 -1;
#X obj 347 126 bng 15 250 50 0 empty empty empty 17 7 0 10 -262144
-1 -1;
#X obj 218 159 spigot;
#X obj 92 90 bng 15 250 50 0 empty empty empty 17 7 0 10 -262144 -1
-1;
#X obj 177 181 bng 15 250 50 0 empty empty empty 17 7 0 10 -262144
-1 -1;
#X obj 197 60 r h_1;
#X obj 244 60 r h_2;
#X obj 292 58 r h_3;
#X obj 338 58 r h_4;
#X connect 0 0 15 0;
#X connect 0 0 16 0;
#X connect 2 0 3 0;
#X connect 2 0 4 0;
#X connect 3 0 2 1;
#X connect 4 0 6 0;
#X connect 4 0 10 0;
#X connect 5 0 11 0;
#X connect 5 0 15 1;
#X connect 6 0 5 0;
#X connect 6 1 7 0;
#X connect 6 2 8 0;
#X connect 6 3 9 0;
#X connect 7 0 12 0;
#X connect 7 0 15 1;
#X connect 8 0 13 0;
#X connect 8 0 15 1;
#X connect 9 0 14 0;
#X connect 9 0 15 1;
#X connect 15 0 1 0;
#X connect 15 0 17 0;
#X connect 16 0 2 0;
#X connect 18 0 5 0;
#X connect 19 0 7 0;
#X connect 20 0 8 0;
#X connect 21 0 9 0;
#X restore 1019 474 pd hec_beat_select;
#N canvas 650 239 450 300 bar 0;
#X obj 101 71 inlet;
#X obj 112 122 float;
#X obj 158 119 + 1;
#X obj 113 164 mod 4;
#X floatatom 65 191 5 0 0 0 - - -;
#X obj 102 100 bng 15 250 50 0 empty empty empty 17 7 0 10 -262144
-1 -1;
#X obj 212 68 sel 0 1 2 3;
#X obj 217 203 outlet;
#X obj 59 71 inlet;
#X floatatom 170 187 5 0 0 0 - - -;
#X floatatom 224 119 5 0 0 0 - - -;
#X obj 223 91 bng 15 250 50 0 empty empty empty 17 7 0 10 -262144 -1
-1;
#X floatatom 268 119 5 0 0 0 - - -;
#X obj 319 79 inlet;
#X obj 327 201 outlet;
#X floatatom 321 111 5 0 0 0 - - -;
#X floatatom 370 112 5 0 0 0 - - -;
#X floatatom 301 192 5 0 0 0 - - -;
#X obj 225 146 +;
#X obj 287 49 r vel_increase;
#X obj 389 50 r dur_increase;
#X obj 319 138 +;
#X connect 0 0 10 0;
#X connect 0 0 12 0;
#X connect 1 0 2 0;
#X connect 1 0 3 0;
#X connect 2 0 1 1;
#X connect 3 0 4 0;
#X connect 3 0 6 0;
#X connect 5 0 1 0;
#X connect 6 0 11 0;
#X connect 6 0 15 0;
#X connect 6 1 12 0;
#X connect 6 1 16 0;
#X connect 8 0 5 0;
#X connect 10 0 18 0;
#X connect 11 0 10 0;
#X connect 12 0 7 0;
#X connect 12 0 9 0;
#X connect 13 0 15 0;
#X connect 13 0 16 0;
#X connect 15 0 21 0;
#X connect 16 0 14 0;
#X connect 16 0 17 0;
#X connect 18 0 9 0;
#X connect 18 0 7 0;
#X connect 19 0 18 1;
#X connect 20 0 21 1;
#X connect 21 0 14 0;
#X restore 839 586 pd bar;
#X floatatom 519 608 5 0 0 0 - - -;
#X floatatom 570 612 5 0 0 0 - - -;
#X text 611 485 Example of data driven duration;
#X floatatom 718 556 5 0 0 0 - test_lar -;
#N canvas 1219 22 495 475 minmaxgeo 0;
#X obj 95 133 >;
#X obj 137 132 <;
#X obj 178 132 >;
#X obj 218 131 <;
#X obj 55 97 r min_eta;
#X obj 121 95 r max_eta;
#X obj 188 95 r min_phi;
#X obj 258 94 r max_phi;
#X obj 118 168 &&;
#X obj 192 167 &&;
#X obj 158 198 &&;
#X obj 59 158 bng 15 250 50 0 empty empty empty 17 7 0 10 -262144 -1
-1;
#X floatatom 39 135 5 0 0 0 - - -;
#X floatatom 113 206 5 0 0 0 - - -;
#X floatatom 212 198 5 0 0 0 - - -;
#X floatatom 124 233 5 0 0 0 - - -;
#X floatatom 248 50 5 0 0 0 - - -;
#X obj 150 365 outlet;
#X obj 92 27 inlet;
#X obj 150 26 inlet;
#X obj 201 24 inlet;
#X floatatom 59 66 5 0 0 0 - - -;
#X floatatom 195 66 5 0 0 0 - - -;
#X floatatom 60 196 5 0 0 0 - - -;
#X obj 210 279 spigot;
#X floatatom 209 313 5 0 0 0 - - -;
#X obj 162 234 bng 15 250 50 0 empty empty empty 17 7 0 10 -262144
-1 -1;
#X connect 0 0 8 0;
#X connect 0 0 11 0;
#X connect 0 0 23 0;
#X connect 1 0 8 1;
#X connect 2 0 9 0;
#X connect 3 0 9 1;
#X connect 4 0 0 1;
#X connect 4 0 12 0;
#X connect 5 0 1 1;
#X connect 6 0 2 1;
#X connect 7 0 3 1;
#X connect 8 0 10 0;
#X connect 8 0 13 0;
#X connect 9 0 10 1;
#X connect 9 0 14 0;
#X connect 10 0 15 0;
#X connect 10 0 24 1;
#X connect 10 0 26 0;
#X connect 18 0 0 0;
#X connect 18 0 1 0;
#X connect 18 0 21 0;
#X connect 19 0 2 0;
#X connect 19 0 3 0;
#X connect 19 0 22 0;
#X connect 20 0 16 0;
#X connect 20 0 24 0;
#X connect 24 0 25 0;
#X connect 24 0 17 0;
#X restore 822 169 pd minmaxgeo;
#N canvas 1109 429 495 475 minmaxgeo 0;
#X obj 95 133 >;
#X obj 137 132 <;
#X obj 178 132 >;
#X obj 218 131 <;
#X obj 55 97 r min_eta;
#X obj 121 95 r max_eta;
#X obj 188 95 r min_phi;
#X obj 258 94 r max_phi;
#X obj 118 168 &&;
#X obj 192 167 &&;
#X obj 158 198 &&;
#X obj 59 158 bng 15 250 50 0 empty empty empty 17 7 0 10 -262144 -1
-1;
#X floatatom 39 135 5 0 0 0 - - -;
#X floatatom 113 206 5 0 0 0 - - -;
#X floatatom 212 198 5 0 0 0 - - -;
#X floatatom 124 233 5 0 0 0 - - -;
#X floatatom 248 50 5 0 0 0 - - -;
#X obj 150 365 outlet;
#X obj 92 27 inlet;
#X obj 150 26 inlet;
#X obj 201 24 inlet;
#X floatatom 59 66 5 0 0 0 - - -;
#X floatatom 195 66 5 0 0 0 - - -;
#X floatatom 60 196 5 0 0 0 - - -;
#X obj 210 279 spigot;
#X floatatom 209 313 5 0 0 0 - - -;
#X connect 0 0 8 0;
#X connect 0 0 11 0;
#X connect 0 0 23 0;
#X connect 1 0 8 1;
#X connect 2 0 9 0;
#X connect 3 0 9 1;
#X connect 4 0 0 1;
#X connect 4 0 12 0;
#X connect 5 0 1 1;
#X connect 6 0 2 1;
#X connect 7 0 3 1;
#X connect 8 0 10 0;
#X connect 8 0 13 0;
#X connect 9 0 10 1;
#X connect 9 0 14 0;
#X connect 10 0 15 0;
#X connect 10 0 24 1;
#X connect 18 0 0 0;
#X connect 18 0 1 0;
#X connect 18 0 21 0;
#X connect 19 0 2 0;
#X connect 19 0 3 0;
#X connect 19 0 22 0;
#X connect 20 0 16 0;
#X connect 20 0 24 0;
#X connect 24 0 25 0;
#X connect 24 0 17 0;
#X restore 999 150 pd minmaxgeo;
#N canvas 941 649 495 475 minmaxgeo 0;
#X obj 95 133 >;
#X obj 137 132 <;
#X obj 178 132 >;
#X obj 218 131 <;
#X obj 55 97 r min_eta;
#X obj 121 95 r max_eta;
#X obj 188 95 r min_phi;
#X obj 258 94 r max_phi;
#X obj 118 168 &&;
#X obj 192 167 &&;
#X obj 158 198 &&;
#X obj 59 158 bng 15 250 50 0 empty empty empty 17 7 0 10 -262144 -1
-1;
#X floatatom 39 135 5 0 0 0 - - -;
#X floatatom 113 206 5 0 0 0 - - -;
#X floatatom 212 198 5 0 0 0 - - -;
#X floatatom 124 233 5 0 0 0 - - -;
#X floatatom 248 50 5 0 0 0 - - -;
#X obj 150 365 outlet;
#X obj 92 27 inlet;
#X obj 150 26 inlet;
#X obj 201 24 inlet;
#X floatatom 59 66 5 0 0 0 - - -;
#X floatatom 195 66 5 0 0 0 - - -;
#X floatatom 60 196 5 0 0 0 - - -;
#X obj 210 279 spigot;
#X floatatom 209 313 5 0 0 0 - - -;
#X connect 0 0 8 0;
#X connect 0 0 11 0;
#X connect 0 0 23 0;
#X connect 1 0 8 1;
#X connect 2 0 9 0;
#X connect 3 0 9 1;
#X connect 4 0 0 1;
#X connect 4 0 12 0;
#X connect 5 0 1 1;
#X connect 6 0 2 1;
#X connect 7 0 3 1;
#X connect 8 0 10 0;
#X connect 8 0 13 0;
#X connect 9 0 10 1;
#X connect 9 0 14 0;
#X connect 10 0 15 0;
#X connect 10 0 24 1;
#X connect 18 0 0 0;
#X connect 18 0 1 0;
#X connect 18 0 21 0;
#X connect 19 0 2 0;
#X connect 19 0 3 0;
#X connect 19 0 22 0;
#X connect 20 0 16 0;
#X connect 20 0 24 0;
#X connect 24 0 25 0;
#X connect 24 0 17 0;
#X restore 216 265 pd minmaxgeo;
#N canvas 1170 543 495 475 minmaxgeo 0;
#X obj 95 133 >;
#X obj 137 132 <;
#X obj 178 132 >;
#X obj 218 131 <;
#X obj 55 97 r min_eta;
#X obj 121 95 r max_eta;
#X obj 188 95 r min_phi;
#X obj 258 94 r max_phi;
#X obj 118 168 &&;
#X obj 192 167 &&;
#X obj 158 198 &&;
#X obj 59 158 bng 15 250 50 0 empty empty empty 17 7 0 10 -262144 -1
-1;
#X floatatom 39 135 5 0 0 0 - - -;
#X floatatom 113 206 5 0 0 0 - - -;
#X floatatom 212 198 5 0 0 0 - - -;
#X floatatom 124 233 5 0 0 0 - - -;
#X floatatom 248 50 5 0 0 0 - - -;
#X obj 150 365 outlet;
#X obj 92 27 inlet;
#X obj 150 26 inlet;
#X obj 201 24 inlet;
#X floatatom 59 66 5 0 0 0 - - -;
#X floatatom 195 66 5 0 0 0 - - -;
#X floatatom 60 196 5 0 0 0 - - -;
#X obj 210 279 spigot;
#X floatatom 209 313 5 0 0 0 - - -;
#X connect 0 0 8 0;
#X connect 0 0 11 0;
#X connect 0 0 23 0;
#X connect 1 0 8 1;
#X connect 2 0 9 0;
#X connect 3 0 9 1;
#X connect 4 0 0 1;
#X connect 4 0 12 0;
#X connect 5 0 1 1;
#X connect 6 0 2 1;
#X connect 7 0 3 1;
#X connect 8 0 10 0;
#X connect 8 0 13 0;
#X connect 9 0 10 1;
#X connect 9 0 14 0;
#X connect 10 0 15 0;
#X connect 10 0 24 1;
#X connect 18 0 0 0;
#X connect 18 0 1 0;
#X connect 18 0 21 0;
#X connect 19 0 2 0;
#X connect 19 0 3 0;
#X connect 19 0 22 0;
#X connect 20 0 16 0;
#X connect 20 0 24 0;
#X connect 24 0 25 0;
#X connect 24 0 17 0;
#X restore 513 264 pd minmaxgeo;
#X obj 614 509 r track_pt;
#X msg 234 45 -0.489607 2.6936 2.04194;
#X obj 238 -3 prepend set;
#X floatatom 205 100 5 0 0 0 - - -;
#X floatatom 246 99 5 0 0 0 - - -;
#X floatatom 291 98 5 0 0 0 - - -;
#X text 206 115 eta;
#X text 250 115 phi;
#X text 290 114 theta;
#X obj 231 71 unpack f f f;
#X msg 410 44 0.920828 1.91712 36.3673 0.757889 24.9985;
#X obj 414 -3 prepend set;
#X floatatom 381 99 5 0 0 0 - - -;
#X floatatom 422 98 5 0 0 0 - - -;
#X floatatom 467 97 5 0 0 0 - - -;
#X text 382 115 eta;
#X text 426 114 phi;
#X obj 407 70 unpack f f f f f;
#X floatatom 507 97 5 0 0 0 - - -;
#X text 469 113 e;
#X text 506 113 theta;
#X text 552 112 pt;
#X floatatom 550 98 5 0 0 0 - - -;
#X msg 687 43 0.337993 -1.46391 0.912 1.23906;
#X obj 689 -1 prepend set;
#X floatatom 658 98 5 0 0 0 - - -;
#X floatatom 699 97 5 0 0 0 - - -;
#X floatatom 744 96 5 0 0 0 - - -;
#X text 659 114 eta;
#X text 703 113 phi;
#X floatatom 784 96 5 0 0 0 - - -;
#X text 746 112 e;
#X text 783 112 theta;
#X obj 684 69 unpack f f f f;
#X msg 931 32 1.75668 2.4047 1.15 0.341865;
#X obj 934 -13 prepend set;
#X floatatom 902 87 5 0 0 0 - - -;
#X floatatom 943 86 5 0 0 0 - - -;
#X floatatom 988 85 5 0 0 0 - - -;
#X text 903 104 eta;
#X text 947 102 phi;
#X floatatom 1028 85 5 0 0 0 - - -;
#X text 990 101 e;
#X text 1027 101 theta;
#X obj 928 58 unpack f f f f;
#X obj 214 19 bng 15 250 50 0 empty empty empty 17 7 0 10 -262144 -1
-1;
#X obj 397 18 bng 15 250 50 0 empty empty empty 17 7 0 10 -262144 -1
-1;
#X obj 671 21 bng 15 250 50 0 empty empty empty 17 7 0 10 -262144 -1
-1;
#X obj 918 11 bng 15 250 50 0 empty empty empty 17 7 0 10 -262144 -1
-1;
#X obj 307 -44 noteout 5;
#X obj 309 -82 makenote 80 100;
#N canvas 363 22 450 300 highhat_beat_select 0;
#X obj 91 61 inlet;
#X obj 216 198 outlet;
#X obj 102 112 float;
#X obj 148 109 + 1;
#X obj 103 154 mod 4;
#X floatatom 217 97 5 0 0 0 - - -;
#X obj 196 28 sel 0 1 2 3;
#X floatatom 260 97 5 0 0 0 - - -;
#X floatatom 300 98 5 0 0 0 - - -;
#X floatatom 346 99 5 0 0 0 - - -;
#X floatatom 55 181 5 0 0 0 - - -;
#X obj 219 125 bng 15 250 50 0 empty empty empty 17 7 0 10 -262144
-1 -1;
#X obj 262 126 bng 15 250 50 0 empty empty empty 17 7 0 10 -262144
-1 -1;
#X obj 302 126 bng 15 250 50 0 empty empty empty 17 7 0 10 -262144
-1 -1;
#X obj 347 126 bng 15 250 50 0 empty empty empty 17 7 0 10 -262144
-1 -1;
#X obj 218 159 spigot;
#X obj 92 90 bng 15 250 50 0 empty empty empty 17 7 0 10 -262144 -1
-1;
#X obj 177 181 bng 15 250 50 0 empty empty empty 17 7 0 10 -262144
-1 -1;
#X obj 197 60 r t_1;
#X obj 244 60 r t_2;
#X obj 292 58 r t_3;
#X obj 338 58 r t_4;
#X connect 0 0 15 0;
#X connect 0 0 16 0;
#X connect 2 0 3 0;
#X connect 2 0 4 0;
#X connect 3 0 2 1;
#X connect 4 0 6 0;
#X connect 4 0 10 0;
#X connect 5 0 11 0;
#X connect 5 0 15 1;
#X connect 6 0 5 0;
#X connect 6 1 7 0;
#X connect 6 2 8 0;
#X connect 6 3 9 0;
#X connect 7 0 12 0;
#X connect 7 0 15 1;
#X connect 8 0 13 0;
#X connect 8 0 15 1;
#X connect 9 0 14 0;
#X connect 9 0 15 1;
#X connect 15 0 1 0;
#X connect 15 0 17 0;
#X connect 16 0 2 0;
#X connect 18 0 5 0;
#X connect 19 0 7 0;
#X connect 20 0 8 0;
#X connect 21 0 9 0;
#X restore 313 -109 pd highhat_beat_select;
#X obj 364 -143 40;
#X obj 351 -163 r beat;
#X obj 711 -76 s beat;
#X obj 169 665 noteout 1;
#X obj 427 634 noteout 2;
#X floatatom 767 214 5 0 0 0 - - -;
#X obj 500 -189 iemnet/udpreceive 5001;
#X floatatom 143 574 5 0 0 0 - test_rpc -;
#X floatatom 400 540 5 0 0 0 - test_track -;
#X floatatom 967 474 5 0 0 0 - test_hec -;
#X connect 0 0 101 0;
#X connect 2 0 103 0;
#X connect 3 0 4 0;
#X connect 4 1 15 0;
#X connect 5 0 4 1;
#X connect 6 0 7 0;
#X connect 7 1 48 2;
#X connect 8 0 7 1;
#X connect 9 0 3 1;
#X connect 10 0 6 1;
#X connect 11 0 74 0;
#X connect 12 0 75 0;
#X connect 13 0 89 0;
#X connect 14 0 85 0;
#X connect 15 0 47 2;
#X connect 18 0 105 0;
#X connect 19 0 2 0;
#X connect 19 0 18 0;
#X connect 20 0 116 0;
#X connect 21 0 125 0;
#X connect 22 0 138 0;
#X connect 23 0 22 1;
#X connect 24 0 149 0;
#X connect 25 0 24 1;
#X connect 28 0 36 0;
#X connect 28 0 47 1;
#X connect 29 0 35 0;
#X connect 29 0 47 0;
#X connect 30 0 48 1;
#X connect 31 0 48 0;
#X connect 40 0 104 0;
#X connect 41 0 12 0;
#X connect 41 0 16 0;
#X connect 41 0 75 0;
#X connect 42 0 11 0;
#X connect 42 0 17 0;
#X connect 43 0 26 0;
#X connect 43 0 40 0;
#X connect 44 0 47 4;
#X connect 45 0 47 3;
#X connect 46 0 38 0;
#X connect 46 0 42 0;
#X connect 47 0 32 0;
#X connect 47 0 19 0;
#X connect 48 0 33 0;
#X connect 48 0 43 0;
#X connect 49 0 39 0;
#X connect 49 0 41 0;
#X connect 50 0 20 1;
#X connect 51 0 21 1;
#X connect 55 0 46 4;
#X connect 56 0 46 3;
#X connect 57 0 34 0;
#X connect 57 0 46 1;
#X connect 58 0 37 0;
#X connect 58 0 46 0;
#X connect 59 0 49 1;
#X connect 60 0 49 4;
#X connect 61 0 49 3;
#X connect 62 0 49 0;
#X connect 63 0 20 0;
#X connect 63 0 27 0;
#X connect 63 1 21 0;
#X connect 63 1 97 0;
#X connect 63 2 22 0;
#X connect 63 2 52 0;
#X connect 63 3 24 0;
#X connect 63 3 53 0;
#X connect 63 3 168 0;
#X connect 63 4 54 0;
#X connect 63 4 80 0;
#X connect 64 0 48 4;
#X connect 65 0 48 3;
#X connect 66 0 74 1;
#X connect 67 0 74 2;
#X connect 68 0 75 1;
#X connect 68 0 106 0;
#X connect 69 0 75 2;
#X connect 69 0 107 0;
#X connect 70 0 105 1;
#X connect 71 0 105 2;
#X connect 72 0 77 1;
#X connect 73 0 77 2;
#X connect 74 0 169 0;
#X connect 74 1 169 1;
#X connect 75 0 170 0;
#X connect 75 1 170 1;
#X connect 76 0 102 0;
#X connect 76 1 102 1;
#X connect 77 0 99 0;
#X connect 77 1 99 1;
#X connect 80 0 78 0;
#X connect 80 1 79 0;
#X connect 81 0 5 0;
#X connect 82 0 9 0;
#X connect 83 0 10 0;
#X connect 84 0 8 0;
#X connect 85 0 86 0;
#X connect 86 1 49 2;
#X connect 87 0 86 1;
#X connect 88 0 85 1;
#X connect 89 0 90 0;
#X connect 90 1 46 2;
#X connect 91 0 90 1;
#X connect 92 0 89 1;
#X connect 93 0 92 0;
#X connect 94 0 91 0;
#X connect 95 0 88 0;
#X connect 96 0 87 0;
#X connect 100 0 98 0;
#X connect 101 0 63 0;
#X connect 101 1 63 0;
#X connect 101 2 63 0;
#X connect 103 0 76 0;
#X connect 104 0 77 0;
#X connect 105 0 76 1;
#X connect 105 1 76 2;
#X connect 109 0 76 0;
#X connect 110 0 3 0;
#X connect 110 0 171 0;
#X connect 111 0 6 0;
#X connect 112 0 13 0;
#X connect 113 0 14 0;
#X connect 114 0 100 0;
#X connect 115 0 123 0;
#X connect 116 0 115 0;
#X connect 116 0 159 0;
#X connect 117 0 112 0;
#X connect 118 0 112 1;
#X connect 118 0 112 2;
#X connect 123 0 117 0;
#X connect 123 1 118 0;
#X connect 123 2 119 0;
#X connect 124 0 131 0;
#X connect 125 0 124 0;
#X connect 125 0 160 0;
#X connect 126 0 113 0;
#X connect 127 0 113 1;
#X connect 128 0 113 2;
#X connect 131 0 126 0;
#X connect 131 1 127 0;
#X connect 131 2 128 0;
#X connect 131 3 132 0;
#X connect 131 4 136 0;
#X connect 137 0 147 0;
#X connect 138 0 137 0;
#X connect 138 0 161 0;
#X connect 139 0 110 0;
#X connect 140 0 110 1;
#X connect 141 0 110 2;
#X connect 147 0 139 0;
#X connect 147 1 140 0;
#X connect 147 2 141 0;
#X connect 147 3 144 0;
#X connect 148 0 158 0;
#X connect 149 0 148 0;
#X connect 149 0 162 0;
#X connect 150 0 111 0;
#X connect 151 0 111 1;
#X connect 152 0 111 2;
#X connect 158 0 150 0;
#X connect 158 1 151 0;
#X connect 158 2 152 0;
#X connect 158 3 155 0;
#X connect 159 0 115 0;
#X connect 160 0 124 0;
#X connect 161 0 137 0;
#X connect 162 0 148 0;
#X connect 164 0 163 0;
#X connect 164 1 163 1;
#X connect 165 0 164 0;
#X connect 166 0 165 0;
#X connect 167 0 166 0;
#X connect 172 0 0 0;
#X connect 173 0 74 0;
#X connect 174 0 75 0;
#X connect 175 0 77 0;
#X coords 0 -1 1 1 1 1 1 100 100;
