#N canvas -5 38 1440 743 10;
#X declare -lib mrpeach;
#X floatatom 166 10 5 0 0 0 - - -;
#X floatatom 266 8 5 0 0 0 - - -;
#X floatatom 346 10 5 0 0 0 - - -;
#X obj 147 -70 bng 15 250 50 0 empty next_RPC empty 17 7 0 10 -262144
-1 -1;
#X floatatom 226 9 5 0 0 0 - - -;
#X obj 180 -34 store_all;
#X obj 263 -33 store_all;
#X obj 349 -33 store_all;
#X obj 453 -30 store_all;
#X obj 515 -31 store_all;
#X obj 645 -26 store_all;
#X obj 715 -29 store_all;
#X obj 831 -26 store_all;
#X obj 913 -26 store_all;
#X obj 997 -27 store_all;
#X obj 1141 -30 store_all;
#X obj 1208 -31 store_all;
#X obj 1275 -30 store_all;
#X obj 1361 -31 store_all;
#X obj 1059 -28 store_all;
#X obj 438 -57 bng 15 250 50 0 empty next_track empty 17 7 0 10 -262144
-1 -1;
#X obj 751 -64 bng 15 250 50 0 empty next_lar empty 17 7 0 10 -262144
-1 -1;
#X obj 1084 -82 bng 15 250 50 0 empty next_hec empty 17 7 0 10 -262144
-1 -1;
#X obj 580 -27 store_all;
#X floatatom 450 16 5 0 0 0 - - -;
#X floatatom 521 15 5 0 0 0 - - -;
#X floatatom 583 15 5 0 0 0 - - -;
#X floatatom 651 15 5 0 0 0 - - -;
#X floatatom 712 14 5 0 0 0 - - -;
#X floatatom 833 14 5 0 0 0 - - -;
#X floatatom 916 10 5 0 0 0 - - -;
#X floatatom 1003 9 5 0 0 0 - - -;
#X floatatom 1066 7 5 0 0 0 - - -;
#X floatatom 1139 10 5 0 0 0 - - -;
#X floatatom 1209 6 5 0 0 0 - - -;
#X floatatom 1277 7 5 0 0 0 - - -;
#X floatatom 1359 6 5 0 0 0 - - -;
#X floatatom 879 13 5 0 0 0 - - -;
#X obj 591 -417 OSC/unpackOSC;
#X text 577 -466 OSC Data Receiving;
#X obj 589 -333 bng 15 250 50 0 empty empty empty 17 7 0 10 -262144
-1 -1;
#X obj 708 -332 bng 15 250 50 0 empty empty empty 17 7 0 10 -262144
-1 -1;
#X obj 759 -333 bng 15 250 50 0 empty empty empty 17 7 0 10 -262144
-1 -1;
#X obj 842 -335 bng 15 250 50 0 empty empty empty 17 7 0 10 -262144
-1 -1;
#X obj 590 -355 OSC/routeOSC /RPC /Tracks /LArHits /HECHits /EventInfo
;
-#X floatatom 1153 -307 5 0 0 0 - - etmiss;
#X floatatom 1194 -311 5 0 0 0 - - effectivesum;
  #X floatatom 1194 -311 5 0 0 0 - - effectivesum;
 -#X obj 1093 -344 OSC/routeOSC /etmiss /effectivesum;
#X obj 652 -332 bng 15 250 50 0 empty empty empty 17 7 0 10 -262144
-1 -1;
#X obj 592 -391 OSC/routeOSC /0 /1 /2;
#X obj 412 -301 prepend set;
#X floatatom 285 -130 5 0 0 0 - - -;
#X floatatom 326 -131 5 0 0 0 - - -;
#X floatatom 371 -132 5 0 0 0 - - -;
#X text 286 -115 eta;
#X text 330 -115 phi;
#X text 370 -114 theta;
#X obj 311 -159 unpack f f f;
#X obj 588 -301 prepend set;
#X floatatom 458 -132 5 0 0 0 - - -;
#X floatatom 499 -133 5 0 0 0 - - -;
#X floatatom 544 -134 5 0 0 0 - - -;
#X text 459 -116 eta;
#X text 503 -117 phi;
#X obj 484 -161 unpack f f f f f;
#X floatatom 584 -134 5 0 0 0 - - -;
#X text 546 -118 e;
#X text 583 -118 theta;
#X text 629 -119 pt;
#X floatatom 627 -133 5 0 0 0 - - -;
#X msg 751 -202 1.74835 -1.97578 0.0991 0.344669;
#X obj 715 -291 prepend set;
#X floatatom 762 -134 5 0 0 0 - - -;
#X floatatom 803 -135 5 0 0 0 - - -;
#X floatatom 846 -134 5 0 0 0 - - -;
#X text 763 -118 eta;
#X text 807 -119 phi;
#X floatatom 888 -136 5 0 0 0 - - -;
#X text 850 -120 e;
#X text 887 -120 theta;
#X obj 761 -165 unpack f f f f;
#X msg 995 -213 2.35839 2.99246 1.11 0.188584;
#X obj 960 -303 prepend set;
#X floatatom 1052 -140 5 0 0 0 - - -;
#X floatatom 1093 -141 5 0 0 0 - - -;
#X floatatom 1138 -142 5 0 0 0 - - -;
#X text 1053 -123 eta;
#X text 1097 -125 phi;
#X floatatom 1178 -142 5 0 0 0 - - -;
#X text 1140 -126 e;
#X text 1177 -126 theta;
#X obj 1078 -169 unpack f f f f;
#X obj 520 -277 bng 15 250 50 0 empty metrob empty 17 7 0 10 -262144
-1 -1;
#X obj 673 -256 bng 15 250 50 0 empty metrob empty 17 7 0 10 -262144
-1 -1;
#X obj 944 -279 bng 15 250 50 0 empty metrob empty 17 7 0 10 -262144
-1 -1;
#X msg 317 -200 1.01842 1.03815 0.693175;
#X obj 349 -274 bng 15 250 50 0 empty metrob empty 17 7 0 10 -262144
-1 -1;
#X msg 486 -202 1.72145 -1.96607 6.69342 0.353874 1.3308;
#X obj 591 -443 iemnet/udpreceive 5002;
#X obj 308 -477 import mrpeach;
#X connect 3 0 5 0;
#X connect 3 0 6 0;
#X connect 3 0 7 0;
#X connect 5 0 0 0;
#X connect 5 1 4 0;
#X connect 6 0 1 0;
#X connect 7 0 2 0;
#X connect 8 0 24 0;
#X connect 9 0 25 0;
#X connect 10 0 27 0;
#X connect 11 0 28 0;
#X connect 12 0 29 0;
#X connect 12 1 37 0;
#X connect 13 0 30 0;
#X connect 14 0 31 0;
#X connect 15 0 33 0;
#X connect 16 0 34 0;
#X connect 17 0 35 0;
#X connect 18 0 36 0;
#X connect 19 0 32 0;
#X connect 20 0 8 0;
#X connect 20 0 9 0;
#X connect 20 0 10 0;
#X connect 20 0 11 0;
#X connect 20 0 23 0;
#X connect 21 0 12 0;
#X connect 21 0 13 0;
#X connect 21 0 14 0;
#X connect 21 0 19 0;
#X connect 22 0 15 0;
#X connect 22 0 16 0;
#X connect 22 0 17 0;
#X connect 22 0 18 0;
#X connect 23 0 26 0;
#X connect 38 0 49 0;
#X connect 44 0 40 0;
#X connect 44 0 50 0;
#X connect 44 1 48 0;
#X connect 44 1 58 0;
#X connect 44 2 41 0;
#X connect 44 2 71 0;
#X connect 44 3 42 0;
#X connect 44 3 82 0;
#X connect 44 4 43 0;
#X connect 44 4 47 0;
#X connect 47 0 45 0;
#X connect 47 1 46 0;
#X connect 49 0 44 0;
#X connect 49 1 44 0;
#X connect 49 2 44 0;
#X connect 50 0 95 0;
#X connect 50 0 96 0;
#X connect 51 0 5 1;
#X connect 52 0 6 1;
#X connect 53 0 7 1;
#X connect 57 0 51 0;
#X connect 57 1 52 0;
#X connect 57 2 53 0;
#X connect 58 0 97 0;
#X connect 58 0 92 0;
#X connect 59 0 8 1;
#X connect 60 0 9 1;
#X connect 61 0 23 1;
#X connect 64 0 59 0;
#X connect 64 1 60 0;
#X connect 64 2 61 0;
#X connect 64 3 65 0;
#X connect 64 4 69 0;
#X connect 65 0 10 1;
#X connect 69 0 11 1;
#X connect 70 0 80 0;
#X connect 71 0 70 0;
#X connect 71 0 93 0;
#X connect 72 0 12 1;
#X connect 73 0 13 1;
#X connect 74 0 14 1;
#X connect 77 0 19 1;
#X connect 80 0 72 0;
#X connect 80 1 73 0;
#X connect 80 2 74 0;
#X connect 80 3 77 0;
#X connect 81 0 91 0;
#X connect 82 0 81 0;
#X connect 82 0 94 0;
#X connect 83 0 15 1;
#X connect 84 0 16 1;
#X connect 85 0 17 1;
#X connect 88 0 18 1;
#X connect 91 0 83 0;
#X connect 91 1 84 0;
#X connect 91 2 85 0;
#X connect 91 3 88 0;
#X connect 92 0 97 0;
#X connect 93 0 70 0;
#X connect 94 0 81 0;
#X connect 95 0 57 0;
#X connect 96 0 95 0;
#X connect 97 0 64 0;
#X connect 98 0 38 0;
