#N canvas 33 52 1215 633 10;
#X declare -lib mrpeach;
#X obj 500 -163 OSC/unpackOSC;
#X text 332 -186 OSC Data Receiving;
#X floatatom 814 663 5 0 0 0 - - -;
#X obj 794 388 moses;
#X obj 796 421 moses;
#X floatatom 856 418 5 0 0 0 - - -;
#X obj 1055 348 moses;
#X obj 1054 378 moses;
#X floatatom 1114 384 5 0 0 0 - - -;
#X floatatom 855 378 5 0 0 0 - - -;
#X floatatom 1116 341 5 0 0 0 - - -;
#X floatatom 236 675 5 0 0 0 - - -;
#X floatatom 512 669 5 0 0 0 - - -;
#X obj 196 438 expr $f1;
#X obj 490 431 expr $f1;
#X floatatom 783 466 5 0 0 0 - - -;
#X obj 457 697 bng 15 250 50 0 empty empty empty 17 7 0 10 -262144
-1 -1;
#X obj 212 672 bng 15 250 50 0 empty empty empty 17 7 0 10 -262144
-1 -1;
#X obj 816 639 process;
#X obj 381 -39 spigot;
#X obj 484 -39 spigot;
#X obj 498 -79 bng 15 250 50 0 empty empty empty 17 7 0 10 -262144
-1 -1;
#X obj 710 550 r lar_max;
#X obj 710 571 r lar_min;
#X obj 1003 470 r hec_max;
#X obj 1003 491 r hec_min;
#X floatatom 761 656 5 0 0 0 - - -;
#X floatatom 1019 537 5 0 0 0 - - -;
#X floatatom 117 572 5 0 0 0 - - -;
#X floatatom 718 624 5 0 0 0 - - -;
#X floatatom 678 589 5 0 0 0 - - -;
#X floatatom 118 601 5 0 0 0 - - -;
#X floatatom 139 627 5 0 0 0 - - -;
#X floatatom 360 614 5 0 0 0 - - -;
#X floatatom 1124 586 5 0 0 0 - - -;
#X obj 474 614 process;
#X obj 231 647 process;
#X obj 1087 547 process;
#X obj 826 559 r lar_midi_max;
#X obj 826 581 r lar_midi_min;
#X obj 185 582 midi_scale;
#X obj 757 610 midi_scale;
#X obj 1069 507 midi_scale;
#X obj 431 584 midi_scale;
#X obj 424 -39 r RPC_on;
#X obj 530 -39 r Track_on;
#X obj 617 -78 bng 15 250 50 0 empty empty empty 17 7 0 10 -262144
-1 -1;
#X obj 668 -79 bng 15 250 50 0 empty empty empty 17 7 0 10 -262144
-1 -1;
#X obj 751 -81 bng 15 250 50 0 empty empty empty 17 7 0 10 -262144
-1 -1;
#X obj 249 533 r RPC_midi_max;
#X obj 249 554 r RPC_midi_min;
#X obj 178 541 r RPC_max;
#X obj 178 562 r RPC_min;
#X obj 438 531 r TR_max;
#X obj 494 535 r TR_midi_max;
#X obj 494 557 r TR_midi_min;
#X obj 438 552 r TR_min;
#X obj 499 -101 OSC/routeOSC /RPC /Tracks /LArHits /HECHits /EventInfo
;
#X obj 1121 445 r hec_midi_max;
#X obj 1121 467 r hec_midi_min;
#X obj 235 700 r rpc_v;
#X obj 287 719 r rpc_d;
#X obj 482 726 r track_v;
#X obj 546 726 r track_d;
#X obj 169 761 makenote;
#X obj 420 770 makenote;
#X obj 834 830 makenote;
#X obj 1063 722 makenote;
#X floatatom 903 -43 5 0 0 0 - - etmiss;
#X floatatom 944 -47 5 0 0 0 - - effectivesum;
#X obj 843 -80 OSC/routeOSC /etmiss /effectivesum;
#X obj 856 399 r lar_min;
#X obj 856 358 r lar_max;
#X obj 1134 317 r hec_max;
#X obj 1114 362 r hec_min;
#X obj 489 462 moses;
#X obj 491 495 moses;
#X floatatom 551 492 5 0 0 0 - - -;
#X floatatom 550 452 5 0 0 0 - - -;
#X obj 200 476 moses;
#X obj 202 509 moses;
#X floatatom 262 506 5 0 0 0 - - -;
#X floatatom 261 466 5 0 0 0 - - -;
#X obj 262 450 r RPC_max;
#X obj 262 487 r RPC_min;
#X obj 551 432 r TR_max;
#X obj 551 473 r TR_min;
#X obj 561 -78 bng 15 250 50 0 empty empty empty 17 7 0 10 -262144
-1 -1;
#X obj 20 427 s track_d;
#X obj 1069 747 noteout 4;
#X obj 18 398 * 300;
#X obj 501 -137 OSC/routeOSC /0 /1 /2;
#X obj 835 858 noteout 3;
#X floatatom 517 769 5 0 0 0 - - -;
#X floatatom 568 773 5 0 0 0 - - -;
#X text 14 350 Example of data driven duration;
#N canvas 1219 22 495 475 minmaxgeo 0;
#X obj 95 133 >;
#X obj 137 132 <;
#X obj 178 132 >;
#X obj 218 131 <;
#X obj 55 97 r min_eta;
#X obj 121 95 r max_eta;
#X obj 188 95 r min_phi;
#X obj 258 94 r max_phi;
#X obj 118 168 &&;
#X obj 192 167 &&;
#X obj 158 198 &&;
#X obj 59 158 bng 15 250 50 0 empty empty empty 17 7 0 10 -262144 -1
-1;
#X floatatom 39 135 5 0 0 0 - - -;
#X floatatom 113 206 5 0 0 0 - - -;
#X floatatom 212 198 5 0 0 0 - - -;
#X floatatom 124 233 5 0 0 0 - - -;
#X floatatom 248 50 5 0 0 0 - - -;
#X obj 150 365 outlet;
#X obj 92 27 inlet;
#X obj 150 26 inlet;
#X obj 201 24 inlet;
#X floatatom 59 66 5 0 0 0 - - -;
#X floatatom 195 66 5 0 0 0 - - -;
#X floatatom 60 196 5 0 0 0 - - -;
#X obj 210 279 spigot;
#X floatatom 209 313 5 0 0 0 - - -;
#X obj 162 234 bng 15 250 50 0 empty empty empty 17 7 0 10 -262144
-1 -1;
#X connect 0 0 8 0;
#X connect 0 0 11 0;
#X connect 0 0 23 0;
#X connect 1 0 8 1;
#X connect 2 0 9 0;
#X connect 3 0 9 1;
#X connect 4 0 0 1;
#X connect 4 0 12 0;
#X connect 5 0 1 1;
#X connect 6 0 2 1;
#X connect 7 0 3 1;
#X connect 8 0 10 0;
#X connect 8 0 13 0;
#X connect 9 0 10 1;
#X connect 9 0 14 0;
#X connect 10 0 15 0;
#X connect 10 0 24 1;
#X connect 10 0 26 0;
#X connect 18 0 0 0;
#X connect 18 0 1 0;
#X connect 18 0 21 0;
#X connect 19 0 2 0;
#X connect 19 0 3 0;
#X connect 19 0 22 0;
#X connect 20 0 16 0;
#X connect 20 0 24 0;
#X connect 24 0 25 0;
#X connect 24 0 17 0;
#X restore 759 340 pd minmaxgeo;
#N canvas 310 186 495 475 minmaxgeo 0;
#X obj 95 133 >;
#X obj 137 132 <;
#X obj 178 132 >;
#X obj 218 131 <;
#X obj 55 97 r min_eta;
#X obj 121 95 r max_eta;
#X obj 188 95 r min_phi;
#X obj 258 94 r max_phi;
#X obj 118 168 &&;
#X obj 192 167 &&;
#X obj 158 198 &&;
#X obj 59 158 bng 15 250 50 0 empty empty empty 17 7 0 10 -262144 -1
-1;
#X floatatom 39 135 5 0 0 0 - - -;
#X floatatom 113 206 5 0 0 0 - - -;
#X floatatom 212 198 5 0 0 0 - - -;
#X floatatom 124 233 5 0 0 0 - - -;
#X floatatom 248 50 5 0 0 0 - - -;
#X obj 150 365 outlet;
#X obj 92 27 inlet;
#X obj 150 26 inlet;
#X obj 201 24 inlet;
#X floatatom 59 66 5 0 0 0 - - -;
#X floatatom 195 66 5 0 0 0 - - -;
#X floatatom 60 196 5 0 0 0 - - -;
#X obj 210 279 spigot;
#X floatatom 209 313 5 0 0 0 - - -;
#X connect 0 0 8 0;
#X connect 0 0 11 0;
#X connect 0 0 23 0;
#X connect 1 0 8 1;
#X connect 2 0 9 0;
#X connect 3 0 9 1;
#X connect 4 0 0 1;
#X connect 4 0 12 0;
#X connect 5 0 1 1;
#X connect 6 0 2 1;
#X connect 7 0 3 1;
#X connect 8 0 10 0;
#X connect 8 0 13 0;
#X connect 9 0 10 1;
#X connect 9 0 14 0;
#X connect 10 0 15 0;
#X connect 10 0 24 1;
#X connect 18 0 0 0;
#X connect 18 0 1 0;
#X connect 18 0 21 0;
#X connect 19 0 2 0;
#X connect 19 0 3 0;
#X connect 19 0 22 0;
#X connect 20 0 16 0;
#X connect 20 0 24 0;
#X connect 24 0 25 0;
#X connect 24 0 17 0;
#X restore 1069 313 pd minmaxgeo;
#N canvas 941 649 495 475 minmaxgeo 0;
#X obj 95 133 >;
#X obj 137 132 <;
#X obj 178 132 >;
#X obj 218 131 <;
#X obj 55 97 r min_eta;
#X obj 121 95 r max_eta;
#X obj 188 95 r min_phi;
#X obj 258 94 r max_phi;
#X obj 118 168 &&;
#X obj 192 167 &&;
#X obj 158 198 &&;
#X obj 59 158 bng 15 250 50 0 empty empty empty 17 7 0 10 -262144 -1
-1;
#X floatatom 39 135 5 0 0 0 - - -;
#X floatatom 113 206 5 0 0 0 - - -;
#X floatatom 212 198 5 0 0 0 - - -;
#X floatatom 124 233 5 0 0 0 - - -;
#X floatatom 248 50 5 0 0 0 - - -;
#X obj 150 365 outlet;
#X obj 92 27 inlet;
#X obj 150 26 inlet;
#X obj 201 24 inlet;
#X floatatom 59 66 5 0 0 0 - - -;
#X floatatom 195 66 5 0 0 0 - - -;
#X floatatom 60 196 5 0 0 0 - - -;
#X obj 210 279 spigot;
#X floatatom 209 313 5 0 0 0 - - -;
#X connect 0 0 8 0;
#X connect 0 0 11 0;
#X connect 0 0 23 0;
#X connect 1 0 8 1;
#X connect 2 0 9 0;
#X connect 3 0 9 1;
#X connect 4 0 0 1;
#X connect 4 0 12 0;
#X connect 5 0 1 1;
#X connect 6 0 2 1;
#X connect 7 0 3 1;
#X connect 8 0 10 0;
#X connect 8 0 13 0;
#X connect 9 0 10 1;
#X connect 9 0 14 0;
#X connect 10 0 15 0;
#X connect 10 0 24 1;
#X connect 18 0 0 0;
#X connect 18 0 1 0;
#X connect 18 0 21 0;
#X connect 19 0 2 0;
#X connect 19 0 3 0;
#X connect 19 0 22 0;
#X connect 20 0 16 0;
#X connect 20 0 24 0;
#X connect 24 0 25 0;
#X connect 24 0 17 0;
#X restore 217 389 pd minmaxgeo;
#N canvas 389 162 495 475 minmaxgeo 0;
#X obj 95 133 >;
#X obj 137 132 <;
#X obj 178 132 >;
#X obj 218 131 <;
#X obj 55 97 r min_eta;
#X obj 121 95 r max_eta;
#X obj 188 95 r min_phi;
#X obj 258 94 r max_phi;
#X obj 118 168 &&;
#X obj 192 167 &&;
#X obj 158 198 &&;
#X obj 59 158 bng 15 250 50 0 empty empty empty 17 7 0 10 -262144 -1
-1;
#X floatatom 39 135 5 0 0 0 - - -;
#X floatatom 113 206 5 0 0 0 - - -;
#X floatatom 212 198 5 0 0 0 - - -;
#X floatatom 124 233 5 0 0 0 - - -;
#X floatatom 248 50 5 0 0 0 - - -;
#X obj 150 365 outlet;
#X obj 92 27 inlet;
#X obj 150 26 inlet;
#X obj 201 24 inlet;
#X floatatom 59 66 5 0 0 0 - - -;
#X floatatom 195 66 5 0 0 0 - - -;
#X floatatom 60 196 5 0 0 0 - - -;
#X obj 210 279 spigot;
#X floatatom 209 313 5 0 0 0 - - -;
#X connect 0 0 8 0;
#X connect 0 0 11 0;
#X connect 0 0 23 0;
#X connect 1 0 8 1;
#X connect 2 0 9 0;
#X connect 3 0 9 1;
#X connect 4 0 0 1;
#X connect 4 0 12 0;
#X connect 5 0 1 1;
#X connect 6 0 2 1;
#X connect 7 0 3 1;
#X connect 8 0 10 0;
#X connect 8 0 13 0;
#X connect 9 0 10 1;
#X connect 9 0 14 0;
#X connect 10 0 15 0;
#X connect 10 0 24 1;
#X connect 18 0 0 0;
#X connect 18 0 1 0;
#X connect 18 0 21 0;
#X connect 19 0 2 0;
#X connect 19 0 3 0;
#X connect 19 0 22 0;
#X connect 20 0 16 0;
#X connect 20 0 24 0;
#X connect 24 0 25 0;
#X connect 24 0 17 0;
#X restore 511 387 pd minmaxgeo;
#X obj 17 374 r track_pt;
#X obj 238 -3 prepend set;
#X floatatom 201 296 5 0 0 0 - - -;
#X floatatom 242 295 5 0 0 0 - - -;
#X floatatom 287 294 5 0 0 0 - - -;
#X text 202 311 eta;
#X text 246 311 phi;
#X text 286 310 theta;
#X obj 227 267 unpack f f f;
#X obj 414 -3 prepend set;
#X floatatom 374 294 5 0 0 0 - - -;
#X floatatom 415 293 5 0 0 0 - - -;
#X floatatom 460 292 5 0 0 0 - - -;
#X text 375 310 eta;
#X text 419 309 phi;
#X obj 400 265 unpack f f f f f;
#X floatatom 500 292 5 0 0 0 - - -;
#X text 462 308 e;
#X text 499 308 theta;
#X text 545 307 pt;
#X floatatom 543 293 5 0 0 0 - - -;
#X msg 687 43 0.264389 1.12634 0.069 1.30943;
#X obj 689 -1 prepend set;
#X floatatom 659 289 5 0 0 0 - - -;
#X floatatom 700 288 5 0 0 0 - - -;
#X floatatom 743 289 5 0 0 0 - - -;
#X text 660 305 eta;
#X text 704 304 phi;
#X floatatom 785 287 5 0 0 0 - - -;
#X text 747 303 e;
#X text 784 303 theta;
#X obj 685 260 unpack f f f f;
#X msg 931 32 1.85749 -0.833472 0.834 0.30963;
#X obj 934 -13 prepend set;
#X floatatom 949 283 5 0 0 0 - - -;
#X floatatom 990 282 5 0 0 0 - - -;
#X floatatom 1035 281 5 0 0 0 - - -;
#X text 950 300 eta;
#X text 994 298 phi;
#X floatatom 1075 281 5 0 0 0 - - -;
#X text 1037 297 e;
#X text 1074 297 theta;
#X obj 975 254 unpack f f f f;
#X obj 373 44 bng 15 250 50 0 empty metrob empty 17 7 0 10 -262144
-1 -1;
#X obj 647 34 bng 15 250 50 0 empty metrob empty 17 7 0 10 -262144
-1 -1;
#X obj 918 11 bng 15 250 50 0 empty metrob empty 17 7 0 10 -262144
-1 -1;
#X obj 425 795 noteout 2;
#X floatatom 717 353 5 0 0 0 - - -;
#X obj 155 -4 metro;
#X obj 176 -50 r tempo;
#X obj 152 -54 bng 15 250 50 0 empty initialize empty 17 7 0 10 -262144
-1 -1;
#X floatatom 206 -27 5 0 0 0 - - -;
#X msg 229 85 -0.400592 -2.04635 1.96109;
#X msg 111 -51 stop;
#X obj 1285 764 bng 15 250 50 0 empty empty empty 17 7 0 10 -262144
-1 -1;
#X obj 195 34 bng 15 250 50 0 empty metrob empty 17 7 0 10 -262144
-1 -1;
#X obj 386 753 bng 15 250 50 0 empty empty empty 17 7 0 10 -262144
-1 -1;
#X floatatom 134 695 5 0 0 0 - test_rpc -;
#X floatatom 385 727 5 0 0 0 - test_track -;
#X floatatom 720 719 5 0 0 0 - test_lar -;
#X floatatom 1015 639 5 0 0 0 - test_hec -;
#X obj 162 127 prepend set;
#X msg 169 192 -0.400592 -2.04635 1.96109;
#X obj 247 127 change;
#X obj 390 124 prepend set;
#X obj 473 124 change;
#X msg 387 179 0.30832 -3.06087 5.37732 1.26725 2.01413;
#X obj 676 104 prepend set;
#X obj 763 104 change;
#X msg 679 178 0.264389 1.12634 0.069 1.30943;
#X obj 922 94 prepend set;
#X msg 940 176 1.85749 -0.833472 0.834 0.30963;
#X obj 1037 693 bng 15 250 50 0 empty empty empty 17 7 0 10 -262144
-1 -1;
#X obj 1314 817 noteout 5;
#N canvas 0 22 1280 706 hec_bar 0;
#X obj 122 132 float;
#X obj 168 129 + 1;
#X floatatom 48 278 5 0 0 0 - - -;
#X obj 112 110 bng 15 250 50 0 empty empty empty 17 7 0 10 -262144
-1 -1;
#X obj 69 81 inlet;
#X obj 285 244 outlet;
#X obj 266 142 r hec_1_v;
#X floatatom 268 173 5 0 0 0 - - -;
#X obj 340 143 r hec_2_v;
#X floatatom 339 170 5 0 0 0 - - -;
#X obj 414 142 r hec_3_v;
#X floatatom 413 172 5 0 0 0 - - -;
#X obj 495 140 r hec_4_v;
#X floatatom 489 169 5 0 0 0 - - -;
#X obj 435 271 r hec_1_d;
#X obj 503 272 r hec_2_d;
#X obj 638 271 r hec_4_d;
#X obj 571 271 r hec_3_d;
#X floatatom 434 297 5 0 0 0 - - -;
#X floatatom 504 296 5 0 0 0 - - -;
#X floatatom 572 296 5 0 0 0 - - -;
#X floatatom 638 298 5 0 0 0 - - -;
#X obj 573 140 r hec_5_v;
#X obj 641 138 r hec_6_v;
#X obj 713 139 r hec_7_v;
#X obj 788 138 r hec_8_v;
#X floatatom 573 168 5 0 0 0 - - -;
#X floatatom 645 166 5 0 0 0 - - -;
#X floatatom 716 166 5 0 0 0 - - -;
#X floatatom 793 169 5 0 0 0 - - -;
#X floatatom 714 298 5 0 0 0 - - -;
#X floatatom 786 296 5 0 0 0 - - -;
#X floatatom 857 296 5 0 0 0 - - -;
#X floatatom 934 299 5 0 0 0 - - -;
#X obj 714 270 r hec_5_d;
#X obj 782 268 r hec_6_d;
#X obj 854 269 r hec_7_d;
#X obj 929 268 r hec_8_d;
#X obj 121 172 r bts_per_rptBlk;
#X floatatom 860 170 5 0 0 0 - - -;
#X floatatom 927 171 5 0 0 0 - - -;
#X floatatom 992 171 5 0 0 0 - - -;
#X floatatom 1058 171 5 0 0 0 - - -;
#X floatatom 1122 170 5 0 0 0 - - -;
#X floatatom 1188 169 5 0 0 0 - - -;
#X floatatom 1255 170 5 0 0 0 - - -;
#X floatatom 1320 170 5 0 0 0 - - -;
#X floatatom 1402 170 5 0 0 0 - - -;
#X floatatom 1469 171 5 0 0 0 - - -;
#X floatatom 1534 171 5 0 0 0 - - -;
#X floatatom 1600 171 5 0 0 0 - - -;
#X floatatom 1664 170 5 0 0 0 - - -;
#X floatatom 1730 169 5 0 0 0 - - -;
#X floatatom 1797 170 5 0 0 0 - - -;
#X floatatom 1862 170 5 0 0 0 - - -;
#X floatatom 1930 171 5 0 0 0 - - -;
#X floatatom 1997 172 5 0 0 0 - - -;
#X floatatom 2062 172 5 0 0 0 - - -;
#X floatatom 2128 172 5 0 0 0 - - -;
#X floatatom 2192 171 5 0 0 0 - - -;
#X floatatom 2258 170 5 0 0 0 - - -;
#X floatatom 2325 171 5 0 0 0 - - -;
#X floatatom 2390 171 5 0 0 0 - - -;
#X obj 855 139 r hec_9_v;
#X obj 922 140 r hec_10_v;
#X obj 987 140 r hec_11_v;
#X obj 1053 140 r hec_12_v;
#X obj 1117 139 r hec_13_v;
#X obj 1250 139 r hec_15_v;
#X obj 1315 139 r hec_16_v;
#X obj 1397 139 r hec_17_v;
#X obj 1464 140 r hec_18_v;
#X obj 1529 140 r hec_19_v;
#X obj 1595 140 r hec_20_v;
#X obj 1659 139 r hec_21_v;
#X obj 1725 138 r hec_22_v;
#X obj 1792 139 r hec_23_v;
#X obj 1857 139 r hec_24_v;
#X obj 1925 140 r hec_25_v;
#X obj 1992 141 r hec_26_v;
#X obj 2057 141 r hec_27_v;
#X obj 2123 141 r hec_28_v;
#X obj 2187 140 r hec_29_v;
#X obj 2253 139 r hec_30_v;
#X obj 2320 140 r hec_31_v;
#X obj 2385 140 r hec_32_v;
#X floatatom 1022 296 5 0 0 0 - - -;
#X floatatom 1092 295 5 0 0 0 - - -;
#X floatatom 1160 295 5 0 0 0 - - -;
#X floatatom 1226 297 5 0 0 0 - - -;
#X floatatom 1302 297 5 0 0 0 - - -;
#X floatatom 1374 295 5 0 0 0 - - -;
#X floatatom 1445 295 5 0 0 0 - - -;
#X floatatom 1522 298 5 0 0 0 - - -;
#X floatatom 1597 295 5 0 0 0 - - -;
#X floatatom 1667 294 5 0 0 0 - - -;
#X floatatom 1735 294 5 0 0 0 - - -;
#X floatatom 1801 296 5 0 0 0 - - -;
#X floatatom 1877 296 5 0 0 0 - - -;
#X floatatom 1949 294 5 0 0 0 - - -;
#X floatatom 2020 294 5 0 0 0 - - -;
#X floatatom 2097 297 5 0 0 0 - - -;
#X floatatom 2165 289 5 0 0 0 - - -;
#X floatatom 2235 288 5 0 0 0 - - -;
#X floatatom 2303 288 5 0 0 0 - - -;
#X floatatom 2369 290 5 0 0 0 - - -;
#X floatatom 2445 290 5 0 0 0 - - -;
#X floatatom 2517 288 5 0 0 0 - - -;
#X floatatom 2588 288 5 0 0 0 - - -;
#X floatatom 2665 291 5 0 0 0 - - -;
#X obj 1023 270 r hec_9_d;
#X obj 1091 271 r hec_10_d;
#X obj 1159 270 r hec_11_d;
#X obj 1226 270 r hec_12_d;
#X obj 1302 269 r hec_13_d;
#X obj 1442 268 r hec_15_d;
#X obj 1517 267 r hec_16_d;
#X obj 1598 269 r hec_17_d;
#X obj 1666 270 r hec_18_d;
#X obj 1734 269 r hec_19_d;
#X obj 1801 269 r hec_20_d;
#X obj 1877 268 r hec_21_d;
#X obj 1945 266 r hec_22_d;
#X obj 2017 267 r hec_23_d;
#X obj 2092 266 r hec_24_d;
#X obj 2166 263 r hec_25_d;
#X obj 2234 264 r hec_26_d;
#X obj 2302 263 r hec_27_d;
#X obj 2369 263 r hec_28_d;
#X obj 2445 262 r hec_29_d;
#X obj 2513 260 r hec_30_d;
#X obj 2585 261 r hec_31_d;
#X obj 2660 260 r hec_32_d;
#X obj 1027 -69 sel 0 1 2 3 4 5 6 7 8 9 10 11 12 13 14 15 16 17 18
19 20 21 22 23 24 25 26 27 28 29 30 31;
#X obj 78 223 mod;
#X obj 543 370 outlet;
#X obj 1370 267 r hec_14_d;
#X obj 1183 138 r hec_14_v;
#X connect 0 0 1 0;
#X connect 0 0 134 0;
#X connect 1 0 0 1;
#X connect 3 0 0 0;
#X connect 4 0 3 0;
#X connect 6 0 7 0;
#X connect 7 0 5 0;
#X connect 8 0 9 0;
#X connect 9 0 5 0;
#X connect 10 0 11 0;
#X connect 11 0 5 0;
#X connect 12 0 13 0;
#X connect 13 0 5 0;
#X connect 14 0 18 0;
#X connect 15 0 19 0;
#X connect 16 0 21 0;
#X connect 17 0 20 0;
#X connect 18 0 135 0;
#X connect 19 0 135 0;
#X connect 20 0 135 0;
#X connect 21 0 135 0;
#X connect 22 0 26 0;
#X connect 23 0 27 0;
#X connect 24 0 28 0;
#X connect 25 0 29 0;
#X connect 26 0 5 0;
#X connect 27 0 5 0;
#X connect 28 0 5 0;
#X connect 29 0 5 0;
#X connect 30 0 135 0;
#X connect 31 0 135 0;
#X connect 32 0 135 0;
#X connect 33 0 135 0;
#X connect 34 0 30 0;
#X connect 35 0 31 0;
#X connect 36 0 32 0;
#X connect 37 0 33 0;
#X connect 38 0 134 1;
#X connect 39 0 5 0;
#X connect 40 0 5 0;
#X connect 41 0 5 0;
#X connect 42 0 5 0;
#X connect 43 0 5 0;
#X connect 44 0 5 0;
#X connect 45 0 5 0;
#X connect 46 0 5 0;
#X connect 47 0 5 0;
#X connect 48 0 5 0;
#X connect 49 0 5 0;
#X connect 50 0 5 0;
#X connect 51 0 5 0;
#X connect 52 0 5 0;
#X connect 53 0 5 0;
#X connect 54 0 5 0;
#X connect 55 0 5 0;
#X connect 56 0 5 0;
#X connect 57 0 5 0;
#X connect 58 0 5 0;
#X connect 59 0 5 0;
#X connect 60 0 5 0;
#X connect 61 0 5 0;
#X connect 62 0 5 0;
#X connect 63 0 39 0;
#X connect 64 0 40 0;
#X connect 65 0 41 0;
#X connect 66 0 42 0;
#X connect 67 0 43 0;
#X connect 68 0 45 0;
#X connect 69 0 46 0;
#X connect 70 0 47 0;
#X connect 71 0 48 0;
#X connect 72 0 49 0;
#X connect 73 0 50 0;
#X connect 74 0 51 0;
#X connect 75 0 52 0;
#X connect 76 0 53 0;
#X connect 77 0 54 0;
#X connect 78 0 55 0;
#X connect 79 0 56 0;
#X connect 80 0 57 0;
#X connect 81 0 58 0;
#X connect 82 0 59 0;
#X connect 83 0 60 0;
#X connect 84 0 61 0;
#X connect 85 0 62 0;
#X connect 86 0 135 0;
#X connect 87 0 135 0;
#X connect 88 0 135 0;
#X connect 89 0 135 0;
#X connect 90 0 135 0;
#X connect 91 0 135 0;
#X connect 92 0 135 0;
#X connect 93 0 135 0;
#X connect 94 0 135 0;
#X connect 95 0 135 0;
#X connect 96 0 135 0;
#X connect 97 0 135 0;
#X connect 98 0 135 0;
#X connect 99 0 135 0;
#X connect 100 0 135 0;
#X connect 101 0 135 0;
#X connect 102 0 135 0;
#X connect 103 0 135 0;
#X connect 104 0 135 0;
#X connect 105 0 135 0;
#X connect 106 0 135 0;
#X connect 107 0 135 0;
#X connect 108 0 135 0;
#X connect 109 0 135 0;
#X connect 110 0 86 0;
#X connect 111 0 87 0;
#X connect 112 0 88 0;
#X connect 113 0 89 0;
#X connect 114 0 90 0;
#X connect 115 0 92 0;
#X connect 116 0 93 0;
#X connect 117 0 94 0;
#X connect 118 0 95 0;
#X connect 119 0 96 0;
#X connect 120 0 97 0;
#X connect 121 0 98 0;
#X connect 122 0 99 0;
#X connect 123 0 100 0;
#X connect 124 0 101 0;
#X connect 125 0 102 0;
#X connect 126 0 103 0;
#X connect 127 0 104 0;
#X connect 128 0 105 0;
#X connect 129 0 106 0;
#X connect 130 0 107 0;
#X connect 131 0 108 0;
#X connect 132 0 109 0;
#X connect 133 0 7 0;
#X connect 133 0 18 0;
#X connect 133 1 9 0;
#X connect 133 1 19 0;
#X connect 133 2 11 0;
#X connect 133 2 20 0;
#X connect 133 3 13 0;
#X connect 133 3 21 0;
#X connect 133 4 26 0;
#X connect 133 4 30 0;
#X connect 133 5 27 0;
#X connect 133 5 31 0;
#X connect 133 6 28 0;
#X connect 133 6 32 0;
#X connect 133 7 29 0;
#X connect 133 7 33 0;
#X connect 133 8 39 0;
#X connect 133 8 86 0;
#X connect 133 9 40 0;
#X connect 133 9 87 0;
#X connect 133 10 41 0;
#X connect 133 10 88 0;
#X connect 133 11 42 0;
#X connect 133 11 89 0;
#X connect 133 12 43 0;
#X connect 133 12 90 0;
#X connect 133 13 44 0;
#X connect 133 13 91 0;
#X connect 133 14 45 0;
#X connect 133 14 92 0;
#X connect 133 15 46 0;
#X connect 133 15 93 0;
#X connect 133 16 47 0;
#X connect 133 16 94 0;
#X connect 133 17 48 0;
#X connect 133 17 95 0;
#X connect 133 18 49 0;
#X connect 133 18 96 0;
#X connect 133 19 50 0;
#X connect 133 19 97 0;
#X connect 133 20 51 0;
#X connect 133 20 98 0;
#X connect 133 21 52 0;
#X connect 133 21 99 0;
#X connect 133 22 53 0;
#X connect 133 22 100 0;
#X connect 133 23 54 0;
#X connect 133 23 101 0;
#X connect 133 24 55 0;
#X connect 133 24 102 0;
#X connect 133 25 56 0;
#X connect 133 25 103 0;
#X connect 133 26 57 0;
#X connect 133 26 104 0;
#X connect 133 27 58 0;
#X connect 133 27 105 0;
#X connect 133 28 59 0;
#X connect 133 28 106 0;
#X connect 133 29 60 0;
#X connect 133 29 107 0;
#X connect 133 30 61 0;
#X connect 133 30 108 0;
#X connect 133 31 62 0;
#X connect 133 31 109 0;
#X connect 134 0 2 0;
#X connect 134 0 133 0;
#X connect 136 0 91 0;
#X connect 137 0 44 0;
#X restore 1110 694 pd hec_bar;
#X obj 1192 601 bng 15 250 50 0 empty empty empty 17 7 0 10 -262144
-1 -1;
#N canvas 0 22 1280 706 lar_bar 0;
#X obj 132 142 float;
#X obj 178 139 + 1;
#X floatatom 65 259 5 0 0 0 - - -;
#X obj 122 120 bng 15 250 50 0 empty empty empty 17 7 0 10 -262144
-1 -1;
#X obj 79 91 inlet;
#X obj 387 254 outlet;
#X obj 693 429 outlet;
#X floatatom 278 183 5 0 0 0 - - -;
#X floatatom 349 180 5 0 0 0 - - -;
#X floatatom 423 182 5 0 0 0 - - -;
#X floatatom 499 179 5 0 0 0 - - -;
#X floatatom 432 323 5 0 0 0 - - -;
#X floatatom 502 322 5 0 0 0 - - -;
#X floatatom 570 322 5 0 0 0 - - -;
#X floatatom 636 324 5 0 0 0 - - -;
#X floatatom 583 178 5 0 0 0 - - -;
#X floatatom 655 176 5 0 0 0 - - -;
#X floatatom 726 176 5 0 0 0 - - -;
#X floatatom 803 179 5 0 0 0 - - -;
#X floatatom 712 324 5 0 0 0 - - -;
#X floatatom 784 322 5 0 0 0 - - -;
#X floatatom 855 322 5 0 0 0 - - -;
#X floatatom 932 325 5 0 0 0 - - -;
#X obj 276 152 r lar_1_v;
#X obj 350 153 r lar_2_v;
#X obj 424 152 r lar_3_v;
#X obj 505 150 r lar_4_v;
#X obj 583 150 r lar_5_v;
#X obj 651 148 r lar_6_v;
#X obj 723 149 r lar_7_v;
#X obj 798 148 r lar_8_v;
#X obj 433 297 r lar_1_d;
#X obj 501 298 r lar_2_d;
#X obj 569 297 r lar_3_d;
#X obj 636 297 r lar_4_d;
#X obj 712 296 r lar_5_d;
#X obj 780 294 r lar_6_d;
#X obj 852 295 r lar_7_d;
#X obj 927 294 r lar_8_d;
#X obj 131 190 r bts_per_rptBlk;
#X obj 93 234 mod;
#X floatatom 860 170 5 0 0 0 - - -;
#X floatatom 927 171 5 0 0 0 - - -;
#X floatatom 992 171 5 0 0 0 - - -;
#X floatatom 1058 171 5 0 0 0 - - -;
#X floatatom 1122 170 5 0 0 0 - - -;
#X floatatom 1188 169 5 0 0 0 - - -;
#X floatatom 1255 170 5 0 0 0 - - -;
#X floatatom 1320 170 5 0 0 0 - - -;
#X floatatom 1402 170 5 0 0 0 - - -;
#X floatatom 1469 171 5 0 0 0 - - -;
#X floatatom 1534 171 5 0 0 0 - - -;
#X floatatom 1600 171 5 0 0 0 - - -;
#X floatatom 1664 170 5 0 0 0 - - -;
#X floatatom 1730 169 5 0 0 0 - - -;
#X floatatom 1797 170 5 0 0 0 - - -;
#X floatatom 1862 170 5 0 0 0 - - -;
#X floatatom 1930 171 5 0 0 0 - - -;
#X floatatom 1997 172 5 0 0 0 - - -;
#X floatatom 2062 172 5 0 0 0 - - -;
#X floatatom 2128 172 5 0 0 0 - - -;
#X floatatom 2192 171 5 0 0 0 - - -;
#X floatatom 2258 170 5 0 0 0 - - -;
#X floatatom 2325 171 5 0 0 0 - - -;
#X floatatom 2390 171 5 0 0 0 - - -;
#X obj 855 139 r lar_9_v;
#X obj 922 140 r lar_10_v;
#X obj 987 140 r lar_11_v;
#X obj 1053 140 r lar_12_v;
#X obj 1117 139 r lar_13_v;
#X obj 1183 138 r lar_14_v;
#X obj 1250 139 r lar_15_v;
#X obj 1315 139 r lar_16_v;
#X obj 1397 139 r lar_17_v;
#X obj 1464 140 r lar_18_v;
#X obj 1529 140 r lar_19_v;
#X obj 1595 140 r lar_20_v;
#X obj 1659 139 r lar_21_v;
#X obj 1725 138 r lar_22_v;
#X obj 1792 139 r lar_23_v;
#X obj 1857 139 r lar_24_v;
#X obj 1925 140 r lar_25_v;
#X obj 1992 141 r lar_26_v;
#X obj 2057 141 r lar_27_v;
#X obj 2123 141 r lar_28_v;
#X obj 2187 140 r lar_29_v;
#X obj 2253 139 r lar_30_v;
#X obj 2320 140 r lar_31_v;
#X obj 2385 140 r lar_32_v;
#X obj 1761 3 sel 0 1 2 3 4 5 6 7 8 9 10 11 12 13 14 15 16 17 18 19
20 21 22 23 24 25 26 27 28 29 30 31;
#X floatatom 1011 323 5 0 0 0 - - -;
#X floatatom 1086 318 5 0 0 0 - - -;
#X floatatom 1154 318 5 0 0 0 - - -;
#X floatatom 1220 320 5 0 0 0 - - -;
#X floatatom 1296 320 5 0 0 0 - - -;
#X floatatom 1368 318 5 0 0 0 - - -;
#X floatatom 1439 318 5 0 0 0 - - -;
#X floatatom 1516 321 5 0 0 0 - - -;
#X floatatom 2156 316 5 0 0 0 - - -;
#X floatatom 2226 315 5 0 0 0 - - -;
#X floatatom 2294 315 5 0 0 0 - - -;
#X floatatom 2360 317 5 0 0 0 - - -;
#X floatatom 2436 317 5 0 0 0 - - -;
#X floatatom 2508 315 5 0 0 0 - - -;
#X floatatom 2579 315 5 0 0 0 - - -;
#X floatatom 2656 318 5 0 0 0 - - -;
#X floatatom 1589 316 5 0 0 0 - - -;
#X floatatom 1659 315 5 0 0 0 - - -;
#X floatatom 1727 315 5 0 0 0 - - -;
#X floatatom 1793 317 5 0 0 0 - - -;
#X floatatom 1869 317 5 0 0 0 - - -;
#X floatatom 1941 315 5 0 0 0 - - -;
#X floatatom 2012 315 5 0 0 0 - - -;
#X floatatom 2089 318 5 0 0 0 - - -;
#X obj 1017 293 r lar_9_d;
#X obj 1085 294 r lar_10_d;
#X obj 1153 293 r lar_11_d;
#X obj 1220 293 r lar_12_d;
#X obj 1296 292 r lar_13_d;
#X obj 1364 290 r lar_14_d;
#X obj 1436 291 r lar_15_d;
#X obj 1511 290 r lar_16_d;
#X obj 1590 290 r lar_17_d;
#X obj 1658 291 r lar_18_d;
#X obj 1726 290 r lar_19_d;
#X obj 1793 290 r lar_20_d;
#X obj 1869 289 r lar_21_d;
#X obj 1937 287 r lar_22_d;
#X obj 2009 288 r lar_23_d;
#X obj 2084 287 r lar_24_d;
#X obj 2157 290 r lar_25_d;
#X obj 2225 291 r lar_26_d;
#X obj 2293 290 r lar_27_d;
#X obj 2360 290 r lar_28_d;
#X obj 2436 289 r lar_29_d;
#X obj 2504 287 r lar_30_d;
#X obj 2576 288 r lar_31_d;
#X obj 2651 287 r lar_32_d;
#X connect 0 0 1 0;
#X connect 0 0 40 0;
#X connect 1 0 0 1;
#X connect 3 0 0 0;
#X connect 4 0 3 0;
#X connect 7 0 5 0;
#X connect 8 0 5 0;
#X connect 9 0 5 0;
#X connect 10 0 5 0;
#X connect 11 0 6 0;
#X connect 12 0 6 0;
#X connect 13 0 6 0;
#X connect 14 0 6 0;
#X connect 15 0 5 0;
#X connect 16 0 5 0;
#X connect 17 0 5 0;
#X connect 18 0 5 0;
#X connect 19 0 6 0;
#X connect 20 0 6 0;
#X connect 21 0 6 0;
#X connect 22 0 6 0;
#X connect 23 0 7 0;
#X connect 24 0 8 0;
#X connect 25 0 9 0;
#X connect 26 0 10 0;
#X connect 27 0 15 0;
#X connect 28 0 16 0;
#X connect 29 0 17 0;
#X connect 30 0 18 0;
#X connect 31 0 11 0;
#X connect 32 0 12 0;
#X connect 33 0 13 0;
#X connect 34 0 14 0;
#X connect 35 0 19 0;
#X connect 36 0 20 0;
#X connect 37 0 21 0;
#X connect 38 0 22 0;
#X connect 39 0 40 1;
#X connect 40 0 2 0;
#X connect 40 0 89 0;
#X connect 41 0 5 0;
#X connect 42 0 5 0;
#X connect 43 0 5 0;
#X connect 44 0 5 0;
#X connect 45 0 5 0;
#X connect 46 0 5 0;
#X connect 47 0 5 0;
#X connect 48 0 5 0;
#X connect 49 0 5 0;
#X connect 50 0 5 0;
#X connect 51 0 5 0;
#X connect 52 0 5 0;
#X connect 53 0 5 0;
#X connect 54 0 5 0;
#X connect 55 0 5 0;
#X connect 56 0 5 0;
#X connect 57 0 5 0;
#X connect 58 0 5 0;
#X connect 59 0 5 0;
#X connect 60 0 5 0;
#X connect 61 0 5 0;
#X connect 62 0 5 0;
#X connect 63 0 5 0;
#X connect 64 0 5 0;
#X connect 65 0 41 0;
#X connect 66 0 42 0;
#X connect 67 0 43 0;
#X connect 68 0 44 0;
#X connect 69 0 45 0;
#X connect 70 0 46 0;
#X connect 71 0 47 0;
#X connect 72 0 48 0;
#X connect 73 0 49 0;
#X connect 74 0 50 0;
#X connect 75 0 51 0;
#X connect 76 0 52 0;
#X connect 77 0 53 0;
#X connect 78 0 54 0;
#X connect 79 0 55 0;
#X connect 80 0 56 0;
#X connect 81 0 57 0;
#X connect 82 0 58 0;
#X connect 83 0 59 0;
#X connect 84 0 60 0;
#X connect 85 0 61 0;
#X connect 86 0 62 0;
#X connect 87 0 63 0;
#X connect 88 0 64 0;
#X connect 89 0 7 0;
#X connect 89 0 11 0;
#X connect 89 1 8 0;
#X connect 89 1 12 0;
#X connect 89 2 9 0;
#X connect 89 2 13 0;
#X connect 89 3 10 0;
#X connect 89 3 14 0;
#X connect 89 4 15 0;
#X connect 89 4 19 0;
#X connect 89 5 16 0;
#X connect 89 5 20 0;
#X connect 89 6 17 0;
#X connect 89 6 21 0;
#X connect 89 7 18 0;
#X connect 89 7 22 0;
#X connect 89 8 41 0;
#X connect 89 8 90 0;
#X connect 89 9 42 0;
#X connect 89 9 91 0;
#X connect 89 10 43 0;
#X connect 89 10 92 0;
#X connect 89 11 44 0;
#X connect 89 11 93 0;
#X connect 89 12 45 0;
#X connect 89 12 94 0;
#X connect 89 13 46 0;
#X connect 89 13 95 0;
#X connect 89 14 47 0;
#X connect 89 14 96 0;
#X connect 89 15 48 0;
#X connect 89 15 97 0;
#X connect 89 16 49 0;
#X connect 89 16 106 0;
#X connect 89 17 50 0;
#X connect 89 17 107 0;
#X connect 89 18 51 0;
#X connect 89 18 108 0;
#X connect 89 19 52 0;
#X connect 89 19 109 0;
#X connect 89 20 53 0;
#X connect 89 20 110 0;
#X connect 89 21 54 0;
#X connect 89 21 111 0;
#X connect 89 22 55 0;
#X connect 89 22 112 0;
#X connect 89 23 56 0;
#X connect 89 23 113 0;
#X connect 89 24 57 0;
#X connect 89 24 98 0;
#X connect 89 25 58 0;
#X connect 89 25 99 0;
#X connect 89 26 59 0;
#X connect 89 26 100 0;
#X connect 89 27 60 0;
#X connect 89 27 101 0;
#X connect 89 28 61 0;
#X connect 89 28 102 0;
#X connect 89 29 62 0;
#X connect 89 29 103 0;
#X connect 89 30 63 0;
#X connect 89 30 104 0;
#X connect 89 31 64 0;
#X connect 89 31 105 0;
#X connect 90 0 6 0;
#X connect 91 0 6 0;
#X connect 92 0 6 0;
#X connect 93 0 6 0;
#X connect 94 0 6 0;
#X connect 95 0 6 0;
#X connect 96 0 6 0;
#X connect 97 0 6 0;
#X connect 98 0 6 0;
#X connect 99 0 6 0;
#X connect 100 0 6 0;
#X connect 101 0 6 0;
#X connect 102 0 6 0;
#X connect 103 0 6 0;
#X connect 104 0 6 0;
#X connect 105 0 6 0;
#X connect 106 0 6 0;
#X connect 107 0 6 0;
#X connect 108 0 6 0;
#X connect 109 0 6 0;
#X connect 110 0 6 0;
#X connect 111 0 6 0;
#X connect 112 0 6 0;
#X connect 113 0 6 0;
#X connect 114 0 90 0;
#X connect 115 0 91 0;
#X connect 116 0 92 0;
#X connect 117 0 93 0;
#X connect 118 0 94 0;
#X connect 119 0 95 0;
#X connect 120 0 96 0;
#X connect 121 0 97 0;
#X connect 122 0 106 0;
#X connect 123 0 107 0;
#X connect 124 0 108 0;
#X connect 125 0 109 0;
#X connect 126 0 110 0;
#X connect 127 0 111 0;
#X connect 128 0 112 0;
#X connect 129 0 113 0;
#X connect 130 0 98 0;
#X connect 131 0 99 0;
#X connect 132 0 100 0;
#X connect 133 0 101 0;
#X connect 134 0 102 0;
#X connect 135 0 103 0;
#X connect 136 0 104 0;
#X connect 137 0 105 0;
#X restore 898 786 pd lar_bar;
#X msg 398 83 0.30832 -3.06087 5.37732 1.26725 2.01413;
#X obj 147 28 bng 15 250 50 0 metrob empty empty 17 7 0 10 -262144
-1 -1;
#X obj 1039 423 bng 15 250 50 0 empty empty empty 17 7 0 10 -262144
-1 -1;
#X obj 796 689 f;
#X obj 1157 563 t f b b;
#X obj 512 641 f;
#X obj 511 697 change;
#X obj 1017 422 bng 15 250 50 0 empty empty empty 17 7 0 10 -262144
-1 -1;
#X obj 926 217 bng 15 250 50 0 empty empty empty 17 7 0 10 -262144
-1 -1;
#X obj 1008 97 bng 15 250 50 0 empty empty empty 17 7 0 10 -262144
-1 -1;
#X obj 1220 585 s beat;
#X obj 762 668 r beat;
#X obj 425 618 r beat;
#X floatatom 915 833 5 0 0 0 - - -;
#X floatatom 964 834 5 0 0 0 - - -;
#X obj 798 754 spigot;
#X obj 845 753 r lar_on;
#X obj 1063 684 spigot;
#X obj 1105 676 r hec_on;
#X obj 1100 615 t f b;
#X obj 90 -86 r stop;
#X obj 151 -88 r start;
#N canvas 0 22 1256 449 hec_beat_select 0;
#X obj 121 91 inlet;
#X obj 246 228 outlet;
#X obj 132 142 float;
#X obj 178 139 + 1;
#X floatatom 247 127 5 0 0 0 - - -;
#X floatatom 290 127 5 0 0 0 - - -;
#X floatatom 330 128 5 0 0 0 - - -;
#X floatatom 376 129 5 0 0 0 - - -;
#X floatatom 73 315 5 0 0 0 - - -;
#X obj 249 155 bng 15 250 50 0 empty empty empty 17 7 0 10 -262144
-1 -1;
#X obj 292 156 bng 15 250 50 0 empty empty empty 17 7 0 10 -262144
-1 -1;
#X obj 332 156 bng 15 250 50 0 empty empty empty 17 7 0 10 -262144
-1 -1;
#X obj 377 156 bng 15 250 50 0 empty empty empty 17 7 0 10 -262144
-1 -1;
#X obj 248 191 spigot;
#X obj 122 120 bng 15 250 50 0 empty empty empty 17 7 0 10 -262144
-1 -1;
#X obj 207 211 bng 15 250 50 0 empty empty empty 17 7 0 10 -262144
-1 -1;
#X obj 65 95 r reset;
#X floatatom 68 123 5 0 0 0 - - -;
#X floatatom 424 130 5 0 0 0 - - -;
#X floatatom 473 128 5 0 0 0 - - -;
#X floatatom 517 126 5 0 0 0 - - -;
#X floatatom 568 126 5 0 0 0 - - -;
#X obj 422 154 bng 15 250 50 0 empty empty empty 17 7 0 10 -262144
-1 -1;
#X obj 474 152 bng 15 250 50 0 empty empty empty 17 7 0 10 -262144
-1 -1;
#X obj 518 150 bng 15 250 50 0 empty empty empty 17 7 0 10 -262144
-1 -1;
#X obj 570 151 bng 15 250 50 0 empty empty empty 17 7 0 10 -262144
-1 -1;
#X obj 227 90 r h_1;
#X obj 274 90 r h_2;
#X obj 322 88 r h_3;
#X obj 368 88 r h_4;
#X obj 419 89 r h_5;
#X obj 468 86 r h_6;
#X obj 515 86 r h_7;
#X obj 562 86 r h_8;
#X floatatom 654 126 5 0 0 0 - - -;
#X floatatom 697 126 5 0 0 0 - - -;
#X floatatom 737 127 5 0 0 0 - - -;
#X floatatom 783 128 5 0 0 0 - - -;
#X obj 656 154 bng 15 250 50 0 empty empty empty 17 7 0 10 -262144
-1 -1;
#X obj 699 155 bng 15 250 50 0 empty empty empty 17 7 0 10 -262144
-1 -1;
#X obj 739 155 bng 15 250 50 0 empty empty empty 17 7 0 10 -262144
-1 -1;
#X obj 784 155 bng 15 250 50 0 empty empty empty 17 7 0 10 -262144
-1 -1;
#X floatatom 831 129 5 0 0 0 - - -;
#X floatatom 880 127 5 0 0 0 - - -;
#X floatatom 924 125 5 0 0 0 - - -;
#X floatatom 975 125 5 0 0 0 - - -;
#X obj 829 153 bng 15 250 50 0 empty empty empty 17 7 0 10 -262144
-1 -1;
#X obj 881 151 bng 15 250 50 0 empty empty empty 17 7 0 10 -262144
-1 -1;
#X obj 925 149 bng 15 250 50 0 empty empty empty 17 7 0 10 -262144
-1 -1;
#X obj 977 150 bng 15 250 50 0 empty empty empty 17 7 0 10 -262144
-1 -1;
#X floatatom 1432 117 5 0 0 0 - - -;
#X floatatom 1475 117 5 0 0 0 - - -;
#X floatatom 1515 118 5 0 0 0 - - -;
#X floatatom 1561 119 5 0 0 0 - - -;
#X obj 1434 145 bng 15 250 50 0 empty empty empty 17 7 0 10 -262144
-1 -1;
#X obj 1477 146 bng 15 250 50 0 empty empty empty 17 7 0 10 -262144
-1 -1;
#X obj 1517 146 bng 15 250 50 0 empty empty empty 17 7 0 10 -262144
-1 -1;
#X obj 1562 146 bng 15 250 50 0 empty empty empty 17 7 0 10 -262144
-1 -1;
#X floatatom 1609 120 5 0 0 0 - - -;
#X floatatom 1658 118 5 0 0 0 - - -;
#X floatatom 1702 116 5 0 0 0 - - -;
#X floatatom 1753 116 5 0 0 0 - - -;
#X obj 1607 144 bng 15 250 50 0 empty empty empty 17 7 0 10 -262144
-1 -1;
#X obj 1659 142 bng 15 250 50 0 empty empty empty 17 7 0 10 -262144
-1 -1;
#X obj 1703 140 bng 15 250 50 0 empty empty empty 17 7 0 10 -262144
-1 -1;
#X obj 1755 141 bng 15 250 50 0 empty empty empty 17 7 0 10 -262144
-1 -1;
#X floatatom 1041 121 5 0 0 0 - - -;
#X floatatom 1084 121 5 0 0 0 - - -;
#X floatatom 1124 122 5 0 0 0 - - -;
#X floatatom 1170 123 5 0 0 0 - - -;
#X obj 1043 149 bng 15 250 50 0 empty empty empty 17 7 0 10 -262144
-1 -1;
#X obj 1086 150 bng 15 250 50 0 empty empty empty 17 7 0 10 -262144
-1 -1;
#X obj 1126 150 bng 15 250 50 0 empty empty empty 17 7 0 10 -262144
-1 -1;
#X obj 1171 150 bng 15 250 50 0 empty empty empty 17 7 0 10 -262144
-1 -1;
#X floatatom 1218 124 5 0 0 0 - - -;
#X floatatom 1267 122 5 0 0 0 - - -;
#X floatatom 1311 120 5 0 0 0 - - -;
#X floatatom 1362 120 5 0 0 0 - - -;
#X obj 1216 148 bng 15 250 50 0 empty empty empty 17 7 0 10 -262144
-1 -1;
#X obj 1268 146 bng 15 250 50 0 empty empty empty 17 7 0 10 -262144
-1 -1;
#X obj 1312 144 bng 15 250 50 0 empty empty empty 17 7 0 10 -262144
-1 -1;
#X obj 1364 145 bng 15 250 50 0 empty empty empty 17 7 0 10 -262144
-1 -1;
#X obj 634 89 r h_9;
#X obj 681 89 r h_10;
#X obj 729 87 r h_11;
#X obj 775 87 r h_12;
#X obj 826 88 r h_13;
#X obj 875 85 r h_14;
#X obj 922 85 r h_15;
#X obj 969 85 r h_16;
#X obj 1021 84 r h_17;
#X obj 1068 84 r h_18;
#X obj 1116 82 r h_19;
#X obj 1162 82 r h_20;
#X obj 1213 83 r h_21;
#X obj 1262 80 r h_22;
#X obj 1309 80 r h_23;
#X obj 1356 80 r h_24;
#X obj 1412 80 r h_25;
#X obj 1459 80 r h_26;
#X obj 1507 78 r h_27;
#X obj 1554 78 r h_28;
#X obj 1604 79 r h_29;
#X obj 1653 76 r h_30;
#X obj 1700 76 r h_31;
#X obj 1747 76 r h_32;
#X obj 715 -11 sel 0 1 2 3 4 5 6 7 8 9 10 11 12 13 14 15 16 17 18 19
20 21 22 23 24 25 26 27 28 29 30 31;
#X obj 90 216 mod;
#X obj 118 188 r bts_per_rptBlk;
#X connect 0 0 13 0;
#X connect 0 0 14 0;
#X connect 2 0 3 0;
#X connect 2 0 107 0;
#X connect 3 0 2 1;
#X connect 4 0 9 0;
#X connect 4 0 13 1;
#X connect 5 0 10 0;
#X connect 5 0 13 1;
#X connect 6 0 11 0;
#X connect 6 0 13 1;
#X connect 7 0 12 0;
#X connect 7 0 13 1;
#X connect 13 0 1 0;
#X connect 13 0 15 0;
#X connect 14 0 2 0;
#X connect 16 0 17 0;
#X connect 17 0 2 0;
#X connect 18 0 22 0;
#X connect 18 0 13 1;
#X connect 19 0 23 0;
#X connect 19 0 13 1;
#X connect 20 0 24 0;
#X connect 20 0 13 1;
#X connect 21 0 25 0;
#X connect 21 0 13 1;
#X connect 26 0 4 0;
#X connect 27 0 5 0;
#X connect 28 0 6 0;
#X connect 29 0 7 0;
#X connect 30 0 18 0;
#X connect 31 0 19 0;
#X connect 32 0 20 0;
#X connect 33 0 21 0;
#X connect 34 0 38 0;
#X connect 34 0 13 1;
#X connect 35 0 39 0;
#X connect 35 0 13 1;
#X connect 36 0 40 0;
#X connect 36 0 13 1;
#X connect 37 0 41 0;
#X connect 37 0 13 1;
#X connect 42 0 46 0;
#X connect 42 0 13 1;
#X connect 43 0 47 0;
#X connect 43 0 13 1;
#X connect 44 0 48 0;
#X connect 44 0 13 1;
#X connect 45 0 49 0;
#X connect 45 0 13 1;
#X connect 50 0 54 0;
#X connect 50 0 13 1;
#X connect 51 0 55 0;
#X connect 51 0 13 1;
#X connect 52 0 56 0;
#X connect 52 0 13 1;
#X connect 53 0 57 0;
#X connect 53 0 13 1;
#X connect 58 0 62 0;
#X connect 58 0 13 1;
#X connect 59 0 63 0;
#X connect 59 0 13 1;
#X connect 60 0 64 0;
#X connect 60 0 13 1;
#X connect 61 0 65 0;
#X connect 61 0 13 1;
#X connect 66 0 70 0;
#X connect 66 0 13 1;
#X connect 67 0 71 0;
#X connect 67 0 13 1;
#X connect 68 0 72 0;
#X connect 68 0 13 1;
#X connect 69 0 73 0;
#X connect 69 0 13 1;
#X connect 74 0 78 0;
#X connect 74 0 13 1;
#X connect 75 0 79 0;
#X connect 75 0 13 1;
#X connect 76 0 80 0;
#X connect 76 0 13 1;
#X connect 77 0 81 0;
#X connect 77 0 13 1;
#X connect 82 0 34 0;
#X connect 83 0 35 0;
#X connect 84 0 36 0;
#X connect 85 0 37 0;
#X connect 86 0 42 0;
#X connect 87 0 43 0;
#X connect 88 0 44 0;
#X connect 89 0 45 0;
#X connect 90 0 66 0;
#X connect 91 0 67 0;
#X connect 92 0 68 0;
#X connect 93 0 69 0;
#X connect 94 0 74 0;
#X connect 95 0 75 0;
#X connect 96 0 76 0;
#X connect 97 0 77 0;
#X connect 98 0 50 0;
#X connect 99 0 51 0;
#X connect 100 0 52 0;
#X connect 101 0 53 0;
#X connect 102 0 58 0;
#X connect 103 0 59 0;
#X connect 104 0 60 0;
#X connect 105 0 61 0;
#X connect 106 0 4 0;
#X connect 106 1 5 0;
#X connect 106 2 6 0;
#X connect 106 3 7 0;
#X connect 106 4 18 0;
#X connect 106 5 19 0;
#X connect 106 6 20 0;
#X connect 106 7 21 0;
#X connect 106 8 34 0;
#X connect 106 9 35 0;
#X connect 106 10 36 0;
#X connect 106 11 37 0;
#X connect 106 12 42 0;
#X connect 106 13 43 0;
#X connect 106 14 44 0;
#X connect 106 15 45 0;
#X connect 106 16 66 0;
#X connect 106 17 67 0;
#X connect 106 18 68 0;
#X connect 106 19 69 0;
#X connect 106 20 74 0;
#X connect 106 21 75 0;
#X connect 106 22 76 0;
#X connect 106 23 77 0;
#X connect 106 24 50 0;
#X connect 106 25 51 0;
#X connect 106 26 52 0;
#X connect 106 27 53 0;
#X connect 106 28 58 0;
#X connect 106 29 59 0;
#X connect 106 30 60 0;
#X connect 106 31 61 0;
#X connect 107 0 8 0;
#X connect 107 0 106 0;
#X connect 108 0 107 1;
#X restore 1067 648 pd hec_beat_select;
#X floatatom 480 657 5 0 0 0 - - -;
#X obj 917 756 r beat;
#X floatatom 263 580 5 0 0 0 - - -;
#X obj 764 744 bng 15 250 50 0 empty empty empty 17 7 0 10 -262144
-1 -1;
#X obj 781 790 bng 15 250 50 0 empty empty empty 17 7 0 10 -262144
-1 -1;
#X floatatom 832 787 5 0 0 0 - - -;
#X floatatom 1101 778 5 0 0 0 - - -;
#X floatatom 1139 779 5 0 0 0 - - -;
#X obj 211 -182 import mrpeach;
#X floatatom 239 736 5 0 0 0 - - -;
#X floatatom 304 761 5 0 0 0 - - -;
#X obj 170 789 noteout 1;
#N canvas 100 106 1280 650 lar_beat_select 0;
#X obj 111 81 inlet;
#X obj 236 218 outlet;
#X obj 122 132 float;
#X obj 168 129 + 1;
#X floatatom 237 117 5 0 0 0 - - -;
#X floatatom 280 117 5 0 0 0 - - -;
#X floatatom 320 118 5 0 0 0 - - -;
#X floatatom 366 119 5 0 0 0 - - -;
#X floatatom 80 307 5 0 0 0 - - -;
#X obj 239 145 bng 15 250 50 0 empty empty empty 17 7 0 10 -262144
-1 -1;
#X obj 282 146 bng 15 250 50 0 empty empty empty 17 7 0 10 -262144
-1 -1;
#X obj 322 146 bng 15 250 50 0 empty empty empty 17 7 0 10 -262144
-1 -1;
#X obj 367 146 bng 15 250 50 0 empty empty empty 17 7 0 10 -262144
-1 -1;
#X obj 237 187 spigot;
#X obj 112 110 bng 15 250 50 0 empty empty empty 17 7 0 10 -262144
-1 -1;
#X obj 197 201 bng 15 250 50 0 empty empty empty 17 7 0 10 -262144
-1 -1;
#X obj 55 85 r reset;
#X floatatom 58 113 5 0 0 0 - - -;
#X obj 217 80 r b_1;
#X obj 264 80 r b_2;
#X obj 312 78 r b_3;
#X obj 358 78 r b_4;
#X obj 409 79 r b_5;
#X obj 458 76 r b_6;
#X obj 505 76 r b_7;
#X obj 552 76 r b_8;
#X floatatom 414 120 5 0 0 0 - - -;
#X floatatom 463 118 5 0 0 0 - - -;
#X floatatom 507 116 5 0 0 0 - - -;
#X floatatom 558 116 5 0 0 0 - - -;
#X obj 412 144 bng 15 250 50 0 empty empty empty 17 7 0 10 -262144
-1 -1;
#X obj 464 142 bng 15 250 50 0 empty empty empty 17 7 0 10 -262144
-1 -1;
#X obj 508 140 bng 15 250 50 0 empty empty empty 17 7 0 10 -262144
-1 -1;
#X obj 560 141 bng 15 250 50 0 empty empty empty 17 7 0 10 -262144
-1 -1;
#X obj 108 178 r bts_per_rptBlk;
#X obj 82 228 mod;
#X floatatom 646 115 5 0 0 0 - - -;
#X floatatom 689 115 5 0 0 0 - - -;
#X floatatom 729 116 5 0 0 0 - - -;
#X floatatom 775 117 5 0 0 0 - - -;
#X obj 648 143 bng 15 250 50 0 empty empty empty 17 7 0 10 -262144
-1 -1;
#X obj 691 144 bng 15 250 50 0 empty empty empty 17 7 0 10 -262144
-1 -1;
#X obj 731 144 bng 15 250 50 0 empty empty empty 17 7 0 10 -262144
-1 -1;
#X obj 776 144 bng 15 250 50 0 empty empty empty 17 7 0 10 -262144
-1 -1;
#X floatatom 823 118 5 0 0 0 - - -;
#X floatatom 872 116 5 0 0 0 - - -;
#X floatatom 916 114 5 0 0 0 - - -;
#X floatatom 967 114 5 0 0 0 - - -;
#X obj 821 142 bng 15 250 50 0 empty empty empty 17 7 0 10 -262144
-1 -1;
#X obj 873 140 bng 15 250 50 0 empty empty empty 17 7 0 10 -262144
-1 -1;
#X obj 917 138 bng 15 250 50 0 empty empty empty 17 7 0 10 -262144
-1 -1;
#X obj 969 139 bng 15 250 50 0 empty empty empty 17 7 0 10 -262144
-1 -1;
#X floatatom 1432 112 5 0 0 0 - - -;
#X floatatom 1475 112 5 0 0 0 - - -;
#X floatatom 1515 113 5 0 0 0 - - -;
#X floatatom 1561 114 5 0 0 0 - - -;
#X obj 1434 140 bng 15 250 50 0 empty empty empty 17 7 0 10 -262144
-1 -1;
#X obj 1477 141 bng 15 250 50 0 empty empty empty 17 7 0 10 -262144
-1 -1;
#X obj 1517 141 bng 15 250 50 0 empty empty empty 17 7 0 10 -262144
-1 -1;
#X obj 1562 141 bng 15 250 50 0 empty empty empty 17 7 0 10 -262144
-1 -1;
#X floatatom 1609 115 5 0 0 0 - - -;
#X floatatom 1658 113 5 0 0 0 - - -;
#X floatatom 1702 111 5 0 0 0 - - -;
#X floatatom 1753 111 5 0 0 0 - - -;
#X obj 1607 139 bng 15 250 50 0 empty empty empty 17 7 0 10 -262144
-1 -1;
#X obj 1659 137 bng 15 250 50 0 empty empty empty 17 7 0 10 -262144
-1 -1;
#X obj 1703 135 bng 15 250 50 0 empty empty empty 17 7 0 10 -262144
-1 -1;
#X obj 1755 136 bng 15 250 50 0 empty empty empty 17 7 0 10 -262144
-1 -1;
#X floatatom 1040 112 5 0 0 0 - - -;
#X floatatom 1083 112 5 0 0 0 - - -;
#X floatatom 1123 113 5 0 0 0 - - -;
#X floatatom 1169 114 5 0 0 0 - - -;
#X obj 1042 140 bng 15 250 50 0 empty empty empty 17 7 0 10 -262144
-1 -1;
#X obj 1085 141 bng 15 250 50 0 empty empty empty 17 7 0 10 -262144
-1 -1;
#X obj 1125 141 bng 15 250 50 0 empty empty empty 17 7 0 10 -262144
-1 -1;
#X obj 1170 141 bng 15 250 50 0 empty empty empty 17 7 0 10 -262144
-1 -1;
#X floatatom 1217 115 5 0 0 0 - - -;
#X floatatom 1266 113 5 0 0 0 - - -;
#X floatatom 1310 111 5 0 0 0 - - -;
#X floatatom 1361 111 5 0 0 0 - - -;
#X obj 1215 139 bng 15 250 50 0 empty empty empty 17 7 0 10 -262144
-1 -1;
#X obj 1267 137 bng 15 250 50 0 empty empty empty 17 7 0 10 -262144
-1 -1;
#X obj 1311 135 bng 15 250 50 0 empty empty empty 17 7 0 10 -262144
-1 -1;
#X obj 1363 136 bng 15 250 50 0 empty empty empty 17 7 0 10 -262144
-1 -1;
#X obj 626 78 r b_9;
#X obj 673 78 r b_10;
#X obj 721 76 r b_11;
#X obj 767 76 r b_12;
#X obj 818 77 r b_13;
#X obj 867 74 r b_14;
#X obj 914 74 r b_15;
#X obj 961 74 r b_16;
#X obj 1020 75 r b_17;
#X obj 1067 75 r b_18;
#X obj 1115 73 r b_19;
#X obj 1161 73 r b_20;
#X obj 1212 74 r b_21;
#X obj 1261 71 r b_22;
#X obj 1308 71 r b_23;
#X obj 1355 71 r b_24;
#X obj 1412 75 r b_25;
#X obj 1459 76 r b_26;
#X obj 1507 73 r b_27;
#X obj 1553 73 r b_28;
#X obj 1653 71 r b_30;
#X obj 1700 71 r b_31;
#X obj 1747 71 r b_32;
#X obj 751 -149 sel 0 1 2 3 4 5 6 7 8 9 10 11 12 13 14 15 16 17 18
19 20 21 22 23 24 25 26 27 28 29 30 31;
#X obj 1604 74 r b_29;
#X connect 0 0 13 0;
#X connect 0 0 14 0;
#X connect 2 0 3 0;
#X connect 2 0 35 0;
#X connect 3 0 2 1;
#X connect 4 0 9 0;
#X connect 4 0 13 1;
#X connect 5 0 10 0;
#X connect 5 0 13 1;
#X connect 6 0 11 0;
#X connect 6 0 13 1;
#X connect 7 0 12 0;
#X connect 7 0 13 1;
#X connect 13 0 1 0;
#X connect 13 0 15 0;
#X connect 14 0 2 0;
#X connect 16 0 17 0;
#X connect 17 0 2 0;
#X connect 18 0 4 0;
#X connect 19 0 5 0;
#X connect 20 0 6 0;
#X connect 21 0 7 0;
#X connect 22 0 26 0;
#X connect 23 0 27 0;
#X connect 24 0 28 0;
#X connect 25 0 29 0;
#X connect 26 0 30 0;
#X connect 26 0 13 1;
#X connect 27 0 31 0;
#X connect 27 0 13 1;
#X connect 28 0 32 0;
#X connect 28 0 13 1;
#X connect 29 0 33 0;
#X connect 29 0 13 1;
#X connect 34 0 35 1;
#X connect 35 0 8 0;
#X connect 35 0 107 0;
#X connect 36 0 40 0;
#X connect 36 0 13 1;
#X connect 37 0 41 0;
#X connect 37 0 13 1;
#X connect 38 0 42 0;
#X connect 38 0 13 1;
#X connect 39 0 43 0;
#X connect 39 0 13 1;
#X connect 44 0 48 0;
#X connect 44 0 13 1;
#X connect 45 0 49 0;
#X connect 45 0 13 1;
#X connect 46 0 50 0;
#X connect 46 0 13 1;
#X connect 47 0 51 0;
#X connect 47 0 13 1;
#X connect 52 0 56 0;
#X connect 52 0 13 1;
#X connect 53 0 57 0;
#X connect 53 0 13 1;
#X connect 54 0 58 0;
#X connect 54 0 13 1;
#X connect 55 0 59 0;
#X connect 55 0 13 1;
#X connect 60 0 64 0;
#X connect 60 0 13 1;
#X connect 61 0 65 0;
#X connect 61 0 13 1;
#X connect 62 0 66 0;
#X connect 62 0 13 1;
#X connect 63 0 67 0;
#X connect 63 0 13 1;
#X connect 68 0 72 0;
#X connect 68 0 13 1;
#X connect 69 0 73 0;
#X connect 69 0 13 1;
#X connect 70 0 74 0;
#X connect 70 0 13 1;
#X connect 71 0 75 0;
#X connect 71 0 13 1;
#X connect 76 0 80 0;
#X connect 76 0 13 1;
#X connect 77 0 81 0;
#X connect 77 0 13 1;
#X connect 78 0 82 0;
#X connect 78 0 13 1;
#X connect 79 0 83 0;
#X connect 79 0 13 1;
#X connect 84 0 36 0;
#X connect 85 0 37 0;
#X connect 86 0 38 0;
#X connect 87 0 39 0;
#X connect 88 0 44 0;
#X connect 89 0 45 0;
#X connect 90 0 46 0;
#X connect 91 0 47 0;
#X connect 92 0 68 0;
#X connect 93 0 69 0;
#X connect 94 0 70 0;
#X connect 95 0 71 0;
#X connect 96 0 76 0;
#X connect 97 0 77 0;
#X connect 98 0 78 0;
#X connect 99 0 79 0;
#X connect 100 0 52 0;
#X connect 101 0 53 0;
#X connect 102 0 54 0;
#X connect 103 0 55 0;
#X connect 104 0 61 0;
#X connect 105 0 62 0;
#X connect 106 0 63 0;
#X connect 107 0 4 0;
#X connect 107 1 5 0;
#X connect 107 2 6 0;
#X connect 107 3 7 0;
#X connect 107 4 26 0;
#X connect 107 5 27 0;
#X connect 107 6 28 0;
#X connect 107 7 29 0;
#X connect 107 8 36 0;
#X connect 107 9 37 0;
#X connect 107 10 38 0;
#X connect 107 11 39 0;
#X connect 107 12 44 0;
#X connect 107 13 45 0;
#X connect 107 14 46 0;
#X connect 107 15 47 0;
#X connect 107 16 68 0;
#X connect 107 17 69 0;
#X connect 107 18 70 0;
#X connect 107 19 71 0;
#X connect 107 20 76 0;
#X connect 107 21 77 0;
#X connect 107 22 78 0;
#X connect 107 23 79 0;
#X connect 107 24 52 0;
#X connect 107 25 53 0;
#X connect 107 26 54 0;
#X connect 107 27 55 0;
#X connect 107 28 60 0;
#X connect 107 29 61 0;
#X connect 107 30 62 0;
#X connect 107 31 63 0;
#X connect 108 0 60 0;
#X restore 795 717 pd lar_beat_select;
#N canvas 37 71 1280 706 highhat_beat_select 0;
#X obj 141 111 inlet;
#X obj 266 248 outlet;
#X obj 152 162 float;
#X obj 198 159 + 1;
#X floatatom 267 147 5 0 0 0 - - -;
#X floatatom 310 147 5 0 0 0 - - -;
#X floatatom 350 148 5 0 0 0 - - -;
#X floatatom 396 149 5 0 0 0 - - -;
#X floatatom 69 257 5 0 0 0 - - -;
#X obj 269 175 bng 15 250 50 0 empty empty empty 17 7 0 10 -262144
-1 -1;
#X obj 312 176 bng 15 250 50 0 empty empty empty 17 7 0 10 -262144
-1 -1;
#X obj 352 176 bng 15 250 50 0 empty empty empty 17 7 0 10 -262144
-1 -1;
#X obj 397 176 bng 15 250 50 0 empty empty empty 17 7 0 10 -262144
-1 -1;
#X obj 283 217 spigot;
#X obj 142 140 bng 15 250 50 0 empty empty empty 17 7 0 10 -262144
-1 -1;
#X obj 227 231 bng 15 250 50 0 empty empty empty 17 7 0 10 -262144
-1 -1;
#X obj 85 115 r reset;
#X floatatom 88 143 5 0 0 0 - - -;
#X floatatom 444 150 5 0 0 0 - - -;
#X floatatom 493 148 5 0 0 0 - - -;
#X floatatom 537 146 5 0 0 0 - - -;
#X floatatom 588 146 5 0 0 0 - - -;
#X obj 442 174 bng 15 250 50 0 empty empty empty 17 7 0 10 -262144
-1 -1;
#X obj 494 172 bng 15 250 50 0 empty empty empty 17 7 0 10 -262144
-1 -1;
#X obj 538 170 bng 15 250 50 0 empty empty empty 17 7 0 10 -262144
-1 -1;
#X obj 590 171 bng 15 250 50 0 empty empty empty 17 7 0 10 -262144
-1 -1;
#X obj 247 110 r t_1;
#X obj 294 110 r t_2;
#X obj 342 108 r t_3;
#X obj 388 108 r t_4;
#X obj 439 109 r t_5;
#X obj 488 106 r t_6;
#X obj 535 106 r t_7;
#X obj 582 106 r t_8;
#X obj 136 195 r bts_per_rptBlk;
#X floatatom 672 143 5 0 0 0 - - -;
#X floatatom 715 143 5 0 0 0 - - -;
#X floatatom 755 144 5 0 0 0 - - -;
#X floatatom 801 145 5 0 0 0 - - -;
#X obj 674 171 bng 15 250 50 0 empty empty empty 17 7 0 10 -262144
-1 -1;
#X obj 717 172 bng 15 250 50 0 empty empty empty 17 7 0 10 -262144
-1 -1;
#X obj 757 172 bng 15 250 50 0 empty empty empty 17 7 0 10 -262144
-1 -1;
#X obj 802 172 bng 15 250 50 0 empty empty empty 17 7 0 10 -262144
-1 -1;
#X floatatom 849 146 5 0 0 0 - - -;
#X floatatom 898 144 5 0 0 0 - - -;
#X floatatom 942 142 5 0 0 0 - - -;
#X floatatom 993 142 5 0 0 0 - - -;
#X obj 847 170 bng 15 250 50 0 empty empty empty 17 7 0 10 -262144
-1 -1;
#X obj 899 168 bng 15 250 50 0 empty empty empty 17 7 0 10 -262144
-1 -1;
#X obj 943 166 bng 15 250 50 0 empty empty empty 17 7 0 10 -262144
-1 -1;
#X obj 995 167 bng 15 250 50 0 empty empty empty 17 7 0 10 -262144
-1 -1;
#X floatatom 1480 135 5 0 0 0 - - -;
#X floatatom 1523 135 5 0 0 0 - - -;
#X floatatom 1563 136 5 0 0 0 - - -;
#X floatatom 1609 137 5 0 0 0 - - -;
#X obj 1482 163 bng 15 250 50 0 empty empty empty 17 7 0 10 -262144
-1 -1;
#X obj 1525 164 bng 15 250 50 0 empty empty empty 17 7 0 10 -262144
-1 -1;
#X obj 1565 164 bng 15 250 50 0 empty empty empty 17 7 0 10 -262144
-1 -1;
#X obj 1610 164 bng 15 250 50 0 empty empty empty 17 7 0 10 -262144
-1 -1;
#X floatatom 1657 138 5 0 0 0 - - -;
#X floatatom 1706 136 5 0 0 0 - - -;
#X floatatom 1750 134 5 0 0 0 - - -;
#X floatatom 1801 134 5 0 0 0 - - -;
#X obj 1655 162 bng 15 250 50 0 empty empty empty 17 7 0 10 -262144
-1 -1;
#X obj 1707 160 bng 15 250 50 0 empty empty empty 17 7 0 10 -262144
-1 -1;
#X obj 1751 158 bng 15 250 50 0 empty empty empty 17 7 0 10 -262144
-1 -1;
#X obj 1803 159 bng 15 250 50 0 empty empty empty 17 7 0 10 -262144
-1 -1;
#X floatatom 1075 139 5 0 0 0 - - -;
#X floatatom 1118 139 5 0 0 0 - - -;
#X floatatom 1158 140 5 0 0 0 - - -;
#X floatatom 1204 141 5 0 0 0 - - -;
#X obj 1077 167 bng 15 250 50 0 empty empty empty 17 7 0 10 -262144
-1 -1;
#X obj 1120 168 bng 15 250 50 0 empty empty empty 17 7 0 10 -262144
-1 -1;
#X obj 1160 168 bng 15 250 50 0 empty empty empty 17 7 0 10 -262144
-1 -1;
#X obj 1205 168 bng 15 250 50 0 empty empty empty 17 7 0 10 -262144
-1 -1;
#X floatatom 1252 142 5 0 0 0 - - -;
#X floatatom 1301 140 5 0 0 0 - - -;
#X floatatom 1345 138 5 0 0 0 - - -;
#X floatatom 1396 138 5 0 0 0 - - -;
#X obj 1250 166 bng 15 250 50 0 empty empty empty 17 7 0 10 -262144
-1 -1;
#X obj 1302 164 bng 15 250 50 0 empty empty empty 17 7 0 10 -262144
-1 -1;
#X obj 1346 162 bng 15 250 50 0 empty empty empty 17 7 0 10 -262144
-1 -1;
#X obj 1398 163 bng 15 250 50 0 empty empty empty 17 7 0 10 -262144
-1 -1;
#X obj 652 106 r t_9;
#X obj 699 106 r t_10;
#X obj 747 104 r t_11;
#X obj 793 104 r t_12;
#X obj 844 105 r t_13;
#X obj 894 102 r t_14;
#X obj 940 102 r t_15;
#X obj 987 102 r t_16;
#X obj 1055 102 r t_17;
#X obj 1102 102 r t_18;
#X obj 1150 100 r t_19;
#X obj 1196 100 r t_20;
#X obj 1247 101 r t_21;
#X obj 1296 98 r t_22;
#X obj 1390 98 r t_24;
#X obj 1460 98 r t_25;
#X obj 1507 98 r t_26;
#X obj 1555 96 r t_27;
#X obj 1601 96 r t_28;
#X obj 1652 97 r t_29;
#X obj 1702 94 r t_30;
#X obj 1748 94 r t_31;
#X obj 1795 94 r t_32;
#X obj 773 25 sel 0 1 2 3 4 5 6 7 8 9 10 11 12 13 14 15 16 17 18 19
20 21 22 23 24 25 26 27 28 29 30 31;
#X obj 1343 98 r t_23;
#X obj 118 231 mod;
#X connect 0 0 13 0;
#X connect 0 0 14 0;
#X connect 2 0 3 0;
#X connect 2 0 108 0;
#X connect 3 0 2 1;
#X connect 4 0 9 0;
#X connect 4 0 13 1;
#X connect 5 0 10 0;
#X connect 5 0 13 1;
#X connect 6 0 11 0;
#X connect 6 0 13 1;
#X connect 7 0 12 0;
#X connect 7 0 13 1;
#X connect 13 0 1 0;
#X connect 13 0 15 0;
#X connect 14 0 2 0;
#X connect 16 0 17 0;
#X connect 17 0 2 0;
#X connect 18 0 22 0;
#X connect 18 0 13 1;
#X connect 19 0 23 0;
#X connect 19 0 13 1;
#X connect 20 0 24 0;
#X connect 20 0 13 1;
#X connect 21 0 25 0;
#X connect 21 0 13 1;
#X connect 26 0 4 0;
#X connect 27 0 5 0;
#X connect 28 0 6 0;
#X connect 29 0 7 0;
#X connect 30 0 18 0;
#X connect 31 0 19 0;
#X connect 32 0 20 0;
#X connect 33 0 21 0;
#X connect 34 0 108 1;
#X connect 35 0 39 0;
#X connect 35 0 13 1;
#X connect 36 0 40 0;
#X connect 36 0 13 1;
#X connect 37 0 41 0;
#X connect 37 0 13 1;
#X connect 38 0 42 0;
#X connect 38 0 13 1;
#X connect 43 0 47 0;
#X connect 43 0 13 1;
#X connect 44 0 48 0;
#X connect 44 0 13 1;
#X connect 45 0 49 0;
#X connect 45 0 13 1;
#X connect 46 0 50 0;
#X connect 46 0 13 1;
#X connect 51 0 55 0;
#X connect 51 0 13 1;
#X connect 52 0 56 0;
#X connect 52 0 13 1;
#X connect 53 0 57 0;
#X connect 53 0 13 1;
#X connect 54 0 58 0;
#X connect 54 0 13 1;
#X connect 59 0 63 0;
#X connect 59 0 13 1;
#X connect 60 0 64 0;
#X connect 60 0 13 1;
#X connect 61 0 65 0;
#X connect 61 0 13 1;
#X connect 62 0 66 0;
#X connect 62 0 13 1;
#X connect 67 0 71 0;
#X connect 67 0 13 1;
#X connect 68 0 72 0;
#X connect 68 0 13 1;
#X connect 69 0 73 0;
#X connect 69 0 13 1;
#X connect 70 0 74 0;
#X connect 70 0 13 1;
#X connect 75 0 79 0;
#X connect 75 0 13 1;
#X connect 76 0 80 0;
#X connect 76 0 13 1;
#X connect 77 0 81 0;
#X connect 77 0 13 1;
#X connect 78 0 82 0;
#X connect 78 0 13 1;
#X connect 83 0 35 0;
#X connect 84 0 36 0;
#X connect 85 0 37 0;
#X connect 86 0 38 0;
#X connect 87 0 43 0;
#X connect 88 0 44 0;
#X connect 89 0 45 0;
#X connect 90 0 46 0;
#X connect 91 0 67 0;
#X connect 92 0 68 0;
#X connect 93 0 69 0;
#X connect 94 0 70 0;
#X connect 95 0 75 0;
#X connect 96 0 76 0;
#X connect 97 0 78 0;
#X connect 98 0 51 0;
#X connect 99 0 52 0;
#X connect 100 0 53 0;
#X connect 101 0 54 0;
#X connect 102 0 59 0;
#X connect 103 0 60 0;
#X connect 104 0 61 0;
#X connect 105 0 62 0;
#X connect 106 0 4 0;
#X connect 106 1 5 0;
#X connect 106 2 6 0;
#X connect 106 3 7 0;
#X connect 106 4 18 0;
#X connect 106 5 19 0;
#X connect 106 6 20 0;
#X connect 106 7 21 0;
#X connect 106 8 35 0;
#X connect 106 9 36 0;
#X connect 106 10 37 0;
#X connect 106 11 38 0;
#X connect 106 12 43 0;
#X connect 106 13 44 0;
#X connect 106 14 45 0;
#X connect 106 15 46 0;
#X connect 106 16 67 0;
#X connect 106 17 68 0;
#X connect 106 18 69 0;
#X connect 106 19 70 0;
#X connect 106 20 75 0;
#X connect 106 21 76 0;
#X connect 106 22 77 0;
#X connect 106 23 78 0;
#X connect 106 24 51 0;
#X connect 106 25 52 0;
#X connect 106 26 53 0;
#X connect 106 27 54 0;
#X connect 106 28 59 0;
#X connect 106 29 60 0;
#X connect 106 30 61 0;
#X connect 106 31 62 0;
#X connect 107 0 77 0;
#X connect 108 0 8 0;
#X connect 108 0 106 0;
#X restore 1257 689 pd highhat_beat_select;
#X obj 1379 631 r const_note;
#X obj 1356 665 f;
#X obj 1353 725 r const_v;
#X obj 1423 724 r const_d;
#X obj 1320 761 makenote;
#X floatatom 1393 760 5 0 0 0 - - -;
#X floatatom 1445 758 5 0 0 0 - - -;
#X obj 1282 727 spigot;
#X obj 1417 688 r const_on;
#X floatatom 1249 824 5 0 0 0 - - -;
#X obj 1213 742 bng 15 250 50 0 empty empty empty 17 7 0 10 -262144
-1 -1;
#X obj 1311 613 bng 15 250 50 0 empty metrob empty 17 7 0 10 -262144
-1 -1;
#X obj 1368 593 r beat;
#X obj 1280 655 bng 15 250 50 0 empty empty empty 17 7 0 10 -262144
-1 -1;
#X obj 500 -189 udpreceive 5002;
#X connect 0 0 91 0;
#X connect 2 0 180 1;
#X connect 3 0 4 0;
#X connect 4 1 15 0;
#X connect 5 0 4 1;
#X connect 6 0 7 0;
#X connect 7 1 42 2;
#X connect 7 1 179 0;
#X connect 8 0 7 1;
#X connect 9 0 3 1;
#X connect 10 0 6 1;
#X connect 11 0 64 0;
#X connect 12 0 183 0;
#X connect 13 0 79 0;
#X connect 14 0 75 0;
#X connect 15 0 41 2;
#X connect 18 0 2 0;
#X connect 19 0 101 0;
#X connect 20 0 109 0;
#X connect 22 0 30 0;
#X connect 22 0 41 1;
#X connect 23 0 29 0;
#X connect 23 0 41 0;
#X connect 24 0 42 1;
#X connect 25 0 42 0;
#X connect 34 0 196 0;
#X connect 35 0 16 0;
#X connect 35 0 182 1;
#X connect 35 0 200 0;
#X connect 36 0 11 0;
#X connect 36 0 17 0;
#X connect 37 0 181 0;
#X connect 38 0 41 4;
#X connect 39 0 41 3;
#X connect 40 0 32 0;
#X connect 40 0 36 0;
#X connect 41 0 26 0;
#X connect 41 0 18 0;
#X connect 42 0 27 0;
#X connect 42 0 37 0;
#X connect 43 0 33 0;
#X connect 43 0 35 0;
#X connect 44 0 19 1;
#X connect 45 0 20 1;
#X connect 49 0 40 4;
#X connect 50 0 40 3;
#X connect 50 0 202 0;
#X connect 51 0 28 0;
#X connect 51 0 40 1;
#X connect 52 0 31 0;
#X connect 52 0 40 0;
#X connect 53 0 43 1;
#X connect 54 0 43 4;
#X connect 55 0 43 3;
#X connect 56 0 43 0;
#X connect 57 0 19 0;
#X connect 57 0 21 0;
#X connect 57 1 20 0;
#X connect 57 1 87 0;
#X connect 57 2 46 0;
#X connect 57 2 122 0;
#X connect 57 3 47 0;
#X connect 57 3 133 0;
#X connect 57 4 48 0;
#X connect 57 4 70 0;
#X connect 58 0 42 4;
#X connect 59 0 42 3;
#X connect 60 0 64 1;
#X connect 60 0 209 0;
#X connect 61 0 64 2;
#X connect 61 0 210 0;
#X connect 62 0 65 1;
#X connect 62 0 93 0;
#X connect 63 0 65 2;
#X connect 63 0 94 0;
#X connect 64 0 211 0;
#X connect 64 1 211 1;
#X connect 65 0 146 0;
#X connect 65 1 146 1;
#X connect 66 0 92 0;
#X connect 66 1 92 1;
#X connect 67 0 89 0;
#X connect 67 1 89 1;
#X connect 70 0 68 0;
#X connect 70 1 69 0;
#X connect 71 0 5 0;
#X connect 72 0 9 0;
#X connect 73 0 10 0;
#X connect 74 0 8 0;
#X connect 75 0 76 0;
#X connect 76 1 43 2;
#X connect 77 0 76 1;
#X connect 78 0 75 1;
#X connect 79 0 80 0;
#X connect 80 1 40 2;
#X connect 81 0 80 1;
#X connect 82 0 79 1;
#X connect 83 0 82 0;
#X connect 84 0 81 0;
#X connect 85 0 78 0;
#X connect 86 0 77 0;
#X connect 90 0 88 0;
#X connect 91 0 57 0;
#X connect 91 1 57 0;
#X connect 91 2 57 0;
#X connect 96 0 3 0;
#X connect 96 0 147 0;
#X connect 97 0 6 0;
#X connect 98 0 13 0;
#X connect 99 0 14 0;
#X connect 100 0 90 0;
#X connect 101 0 152 0;
#X connect 102 0 98 0;
#X connect 103 0 98 1;
#X connect 103 0 98 2;
#X connect 108 0 102 0;
#X connect 108 1 103 0;
#X connect 108 2 104 0;
#X connect 109 0 177 0;
#X connect 110 0 99 0;
#X connect 111 0 99 1;
#X connect 112 0 99 2;
#X connect 115 0 110 0;
#X connect 115 1 111 0;
#X connect 115 2 112 0;
#X connect 115 3 116 0;
#X connect 115 4 120 0;
#X connect 121 0 167 0;
#X connect 121 0 168 0;
#X connect 122 0 121 0;
#X connect 123 0 96 0;
#X connect 124 0 96 1;
#X connect 125 0 96 2;
#X connect 131 0 123 0;
#X connect 131 1 124 0;
#X connect 131 2 125 0;
#X connect 131 3 128 0;
#X connect 132 0 170 0;
#X connect 132 0 186 0;
#X connect 133 0 132 0;
#X connect 134 0 97 0;
#X connect 135 0 97 1;
#X connect 136 0 97 2;
#X connect 136 0 184 0;
#X connect 142 0 134 0;
#X connect 142 1 135 0;
#X connect 142 2 136 0;
#X connect 142 3 139 0;
#X connect 143 0 177 0;
#X connect 144 0 121 0;
#X connect 145 0 132 0;
#X connect 148 0 178 0;
#X connect 149 0 148 1;
#X connect 149 0 151 0;
#X connect 150 0 148 0;
#X connect 152 0 161 0;
#X connect 152 0 163 0;
#X connect 153 0 148 0;
#X connect 155 0 152 0;
#X connect 157 0 64 0;
#X connect 158 0 65 0;
#X connect 159 0 66 0;
#X connect 160 0 67 0;
#X connect 161 0 162 0;
#X connect 162 0 108 0;
#X connect 163 0 162 0;
#X connect 164 0 166 0;
#X connect 165 0 166 0;
#X connect 166 0 115 0;
#X connect 167 0 169 0;
#X connect 168 0 169 0;
#X connect 169 0 131 0;
#X connect 170 0 171 0;
#X connect 171 0 142 0;
#X connect 171 0 185 0;
#X connect 174 0 67 1;
#X connect 174 0 206 0;
#X connect 174 1 67 2;
#X connect 174 1 207 0;
#X connect 175 0 174 0;
#X connect 176 0 66 1;
#X connect 176 0 190 0;
#X connect 176 1 66 2;
#X connect 176 1 191 0;
#X connect 177 0 164 0;
#X connect 177 0 165 0;
#X connect 180 0 212 0;
#X connect 181 0 34 0;
#X connect 181 1 175 0;
#X connect 181 2 187 0;
#X connect 182 0 12 0;
#X connect 183 0 65 0;
#X connect 186 0 171 0;
#X connect 188 0 180 0;
#X connect 189 0 182 0;
#X connect 192 0 66 0;
#X connect 192 0 204 0;
#X connect 192 0 205 0;
#X connect 193 0 192 1;
#X connect 194 0 67 0;
#X connect 195 0 194 1;
#X connect 196 0 199 0;
#X connect 197 0 153 0;
#X connect 198 0 150 0;
#X connect 199 0 194 0;
#X connect 201 0 176 0;
#X connect 212 0 192 0;
#X connect 212 0 203 0;
#X connect 213 0 221 0;
#X connect 214 0 215 1;
#X connect 215 0 213 0;
#X connect 215 0 224 0;
#X connect 216 0 218 1;
#X connect 216 0 219 0;
#X connect 217 0 218 2;
#X connect 217 0 220 0;
#X connect 218 0 173 0;
#X connect 218 0 154 0;
#X connect 218 1 173 1;
#X connect 221 0 218 0;
#X connect 222 0 221 1;
#X connect 222 0 223 0;
#X connect 226 0 227 0;
#X connect 226 0 215 0;
#X connect 228 0 0 0;
#X coords 0 -1 1 1 1 1 1 100 100;
