#N canvas 45 252 837 425 10;
#X obj 305 42 inlet;
#X obj 479 117 -;
#X obj 369 216 *;
#X obj 233 41 inlet;
#X obj 380 317 outlet;
#X obj 455 65 t b f;
#X floatatom 526 78 5 0 0 0 - - -;
#X obj 380 249 +;
#X text 232 20 min_energy;
#X text 303 20 max_energy;
#X obj 374 40 inlet;
#X text 372 18 data;
#X obj 286 98 -;
#X obj 239 98 -;
#X obj 232 65 t b f;
#X obj 265 179 /;
#X obj 239 129 t b f;
#X obj 458 150 t b f;
#X obj 437 212 t b f;
#X floatatom 333 254 5 0 0 0 - - -;
#X floatatom 520 153 5 0 0 0 - - -;
#X floatatom 181 105 5 0 0 0 - - -;
#X floatatom 243 232 5 0 0 0 - - -;
#X floatatom 303 137 5 0 0 0 - - -;
#X floatatom 366 96 5 0 0 0 - - -;
#X floatatom 182 150 5 0 0 0 - - -;
#X floatatom 436 249 5 0 0 0 - - -;
#X floatatom 406 136 5 0 0 0 - - -;
#X obj 380 284 int;
#X obj 443 37 inlet;
#X obj 548 31 inlet;
#X text 541 15 max_midi;
#X text 437 18 min_midi;
#X connect 0 0 13 0;
#X connect 1 0 17 0;
#X connect 1 0 20 0;
#X connect 2 0 7 0;
#X connect 2 0 19 0;
#X connect 3 0 14 0;
#X connect 3 0 21 0;
#X connect 5 0 1 0;
#X connect 5 1 1 1;
#X connect 7 0 28 0;
#X connect 10 0 12 0;
#X connect 10 0 24 0;
#X connect 12 0 15 0;
#X connect 12 0 23 0;
#X connect 13 0 16 0;
#X connect 13 0 25 0;
#X connect 14 0 13 0;
#X connect 14 0 12 0;
#X connect 14 1 13 1;
#X connect 14 1 12 1;
#X connect 15 0 2 0;
#X connect 15 0 22 0;
#X connect 16 0 15 0;
#X connect 16 1 15 1;
#X connect 17 0 2 0;
#X connect 17 1 2 1;
#X connect 18 0 7 0;
#X connect 18 1 7 1;
#X connect 18 1 26 0;
#X connect 28 0 4 0;
#X connect 29 0 18 0;
#X connect 29 0 5 0;
#X connect 29 0 27 0;
#X connect 30 0 1 0;
#X connect 30 0 6 0;
