#N canvas 827 -1058 898 581 10;
#X floatatom 302 181 5 0 0 0 - - -;
#X obj 329 276 mod 12;
#X obj 277 276 div 12;
#X floatatom 222 292 5 0 0 0 - - -;
#N canvas 86 101 623 322 scale_quantize 0;
#X obj 94 237 list-reduce;
#N canvas 665 344 450 300 compare-two 0;
#X obj 109 22 inlet;
#X obj 109 328 outlet;
#X obj 174 172 abs;
#X obj 109 171 abs;
#X obj 109 51 unpack f f;
#X obj 109 100 t a a;
#X obj 109 282 f;
#X obj 174 100 t a a;
#X obj 141 282 f;
#X obj 109 257 select 1 0;
#X text 188 286 send number with smaller distance back to reduce;
#X text 225 161 calculate distances;
#X obj 109 202 <;
#X obj 227 101 inlet;
#X obj 174 149 -;
#X obj 109 148 -;
#X connect 0 0 4 0;
#X connect 2 0 12 1;
#X connect 3 0 12 0;
#X connect 4 0 5 0;
#X connect 4 1 7 0;
#X connect 5 0 15 0;
#X connect 5 1 6 1;
#X connect 6 0 1 0;
#X connect 7 0 14 0;
#X connect 7 1 8 1;
#X connect 8 0 1 0;
#X connect 9 0 6 0;
#X connect 9 1 8 0;
#X connect 12 0 9 0;
#X connect 13 0 14 1;
#X connect 13 0 15 1;
#X connect 14 0 2 0;
#X connect 15 0 3 0;
#X restore 175 237 pd compare-two;
#X floatatom 121 272 5 0 0 0 - - -;
#X obj 302 84 inlet;
#X obj 60 269 outlet;
#X obj 87 78 r scale;
#X obj 91 121 prepend set;
#X msg 96 196 0 3 5 6 7 10;
#X obj 251 132 t b a;
#X obj 314 153 bng 15 250 50 0 empty empty empty 17 7 0 10 -262144
-1 -1;
#X floatatom 333 119 5 0 0 0 - - -;
#X connect 0 0 2 0;
#X connect 0 0 4 0;
#X connect 0 1 1 0;
#X connect 1 0 0 1;
#X connect 3 0 10 0;
#X connect 3 0 8 0;
#X connect 3 0 9 0;
#X connect 5 0 6 0;
#X connect 6 0 7 0;
#X connect 7 0 0 0;
#X connect 8 0 7 0;
#X connect 8 1 1 1;
#X restore 337 314 pd scale_quantize;
#X obj 299 146 inlet;
#X obj 324 475 outlet;
#X text 430 63 input: scaled data point;
#X text 331 109 Output left: pitch value;
#X text 490 112 Output right: note on selected scale (for reference)
;
#X floatatom 241 250 5 0 0 0 - - -;
#X obj 302 232 int;
#X obj 281 313 * 12;
#X floatatom 383 290 5 0 0 0 - - -;
#X floatatom 202 340 5 0 0 0 - - -;
#X floatatom 418 392 5 0 0 0 - - -;
#X obj 333 344 t b a;
#X obj 279 376 f;
#X obj 308 404 +;
#X floatatom 300 444 5 0 0 0 - - -;
#X floatatom 260 410 5 0 0 0 - - -;
#X obj 258 182 bng 15 250 50 0 empty empty empty 17 7 0 10 -262144
-1 -1;
#X connect 0 0 11 0;
#X connect 1 0 4 0;
#X connect 1 0 13 0;
#X connect 2 0 3 0;
#X connect 2 0 12 0;
#X connect 4 0 15 0;
#X connect 4 0 16 0;
#X connect 5 0 0 0;
#X connect 5 0 21 0;
#X connect 11 0 2 0;
#X connect 11 0 1 0;
#X connect 12 0 14 0;
#X connect 12 0 17 1;
#X connect 16 0 17 0;
#X connect 16 1 18 1;
#X connect 17 0 18 0;
#X connect 17 0 20 0;
#X connect 18 0 19 0;
#X connect 18 0 6 0;
